<svg xmlns="http://www.w3.org/2000/svg" width="73.586" height="127.892" viewBox="0 0 73.586 127.892">
  <g id="Group_563" data-name="Group 563" transform="translate(0 127.892) rotate(-90)">
    <path id="Path_822" data-name="Path 822" d="M39.989,35.564h-.831v-6.88h8.579v.831H39.989Z" transform="translate(-39.158 -28.684)" fill="#92ffd8"/>
    <path id="Path_823" data-name="Path 823" d="M177.414,35.564h-.831V29.515h-7.749v-.831h8.579Z" transform="translate(-49.523 -28.684)" fill="#92ffd8"/>
    <path id="Path_824" data-name="Path 824" d="M43.05,34.4h-.415V32.656h2.5v.415H43.05Z" transform="translate(-40.351 -30.047)" fill="#92ffd8"/>
    <path id="Path_825" data-name="Path 825" d="M176.822,34.4h-.415V33.071h-2.083v-.415h2.5Z" transform="translate(-51.406 -30.047)" fill="#92ffd8"/>
    <path id="Path_826" data-name="Path 826" d="M47.737,99.292H39.158v-6.88h.831v6.049h7.749Z" transform="translate(-39.158 -25.706)" fill="#92ffd8"/>
    <path id="Path_827" data-name="Path 827" d="M177.414,99.292h-8.579v-.831h7.749V92.412h.831Z" transform="translate(-49.523 -25.706)" fill="#92ffd8"/>
    <path id="Path_828" data-name="Path 828" d="M45.133,98h-2.5V96.252h.415v1.333h2.083Z" transform="translate(-40.351 -27.023)" fill="#92ffd8"/>
    <path id="Path_829" data-name="Path 829" d="M176.822,98h-2.5v-.415h2.083V96.252h.415Z" transform="translate(-51.406 -27.023)" fill="#92ffd8"/>
  </g>
</svg>
