<svg xmlns="http://www.w3.org/2000/svg" xmlns:xlink="http://www.w3.org/1999/xlink" width="42.065" height="88" viewBox="0 0 42.065 88">
  <defs>
    <linearGradient id="linear-gradient" y1="0.5" x2="1" y2="0.5" gradientUnits="objectBoundingBox">
      <stop offset="0" stop-color="#2dcfa6" stop-opacity="0"/>
      <stop offset="1" stop-color="#2dcfa6"/>
    </linearGradient>
  </defs>
  <g id="Group_566" data-name="Group 566" transform="translate(0 88) rotate(-90)">
    <path id="Path_202" data-name="Path 202" d="M222.26,146.881c-19.35-1.243-41.579-.523-59.59.178a12.545,12.545,0,0,1-13.036-12.537V123.486a12.538,12.538,0,0,1,13.28-12.516c18.808,1.1,40.853,1.486,58.866.213a14.664,14.664,0,0,1,15.853,14.81v6.475A14.443,14.443,0,0,1,222.26,146.881Z" transform="translate(-149.633 -108.265)" fill="#29bf9a"/>
    <path id="Path_203" data-name="Path 203" d="M233.472,127.373s1.03,5.245,0,9.115c0,0,6.581,2.572,12.779,2.155,0,0,1.131-8.11,0-13.588C246.251,125.055,238.685,125.07,233.472,127.373Z" transform="translate(-168.132 -111.378)" opacity="0.44" fill="url(#linear-gradient)"/>
    <path id="Path_204" data-name="Path 204" d="M154.267,114.8l-.328.29c.267.612.849,2.367.259,2.9a11.043,11.043,0,0,1-3.28,1.317l-.2.486a12.413,12.413,0,0,0,3.762-1.495C155.4,117.471,154.384,115.073,154.267,114.8Z" transform="translate(-149.872 -109.116)" fill="#00ffbf" opacity="0.56"/>
    <path id="Path_205" data-name="Path 205" d="M149.633,131.393v7.64a12.545,12.545,0,0,0,13.036,12.537c18.011-.7,40.24-1.421,59.59-.178a14.443,14.443,0,0,0,15.373-14.414v-1.856A849.076,849.076,0,0,1,149.633,131.393Z" transform="translate(-149.633 -112.776)" fill="#2dcfa6" opacity="0.19"/>
    <path id="Path_206" data-name="Path 206" d="M240.523,140.153a20.083,20.083,0,0,1-9.362-2.051l.2-.368c6.557,3.486,15.23,1.421,16.226,1.166,2.234-5.088.337-13.96.079-15.1a25.072,25.072,0,0,0-16.309,1.164l-.189-.373a25.513,25.513,0,0,1,16.726-1.163l.12.033.029.12c.1.408,2.386,10.05-.117,15.578l-.04.089-.094.026A30.465,30.465,0,0,1,240.523,140.153Z" transform="translate(-167.622 -110.826)" fill="#00ffbf" opacity="0.56"/>
    <path id="Path_207" data-name="Path 207" d="M223.009,113.25a3,3,0,0,0,2.527-3.5c-.531-2.988-3.693-2.2-3.887-2.008S222.652,113.317,223.009,113.25Z" transform="translate(-165.519 -107.506)" fill="#2dcfa6"/>
    <path id="Path_208" data-name="Path 208" d="M225.812,110.977a3.185,3.185,0,0,0,0-1.224,2.543,2.543,0,0,0-2.919-2.235A11.791,11.791,0,0,0,225.812,110.977Z" transform="translate(-165.799 -107.506)" fill="#2dcfa6" opacity="0.19"/>
    <path id="Path_209" data-name="Path 209" d="M223.009,154.109a3,3,0,0,1,2.527,3.5c-.531,2.988-3.693,2.2-3.887,2.008S222.652,154.042,223.009,154.109Z" transform="translate(-165.519 -117.789)" fill="#2dcfa6"/>
    <path id="Path_210" data-name="Path 210" d="M225.117,158.927a2.967,2.967,0,0,0,.546-1.319,3,3,0,0,0-2.527-3.5c-.187-.035-.6,1.422-.931,2.845A8.467,8.467,0,0,1,225.117,158.927Z" transform="translate(-165.646 -117.789)" fill="#2dcfa6" opacity="0.19"/>
    <path id="Path_211" data-name="Path 211" d="M206.767,120.508a170.46,170.46,0,0,0-.025,19.534,1.478,1.478,0,0,0,1.246,1.344l15.514,2.491a1.476,1.476,0,0,0,1.593-.863,30.671,30.671,0,0,0,2.146-12.113,42.374,42.374,0,0,0-1.966-13.141,1.478,1.478,0,0,0-1.629-.993l-15.62,2.36A1.478,1.478,0,0,0,206.767,120.508Z" transform="translate(-162.173 -109.545)" fill="#2c3546"/>
    <path id="Path_212" data-name="Path 212" d="M206.465,134.468c-.015,3.087.049,6.425.277,9.483a1.478,1.478,0,0,0,1.246,1.344l15.514,2.491a1.476,1.476,0,0,0,1.593-.863,30.035,30.035,0,0,0,2.135-11.241C220.3,135.486,213.373,135.131,206.465,134.468Z" transform="translate(-162.173 -113.455)" fill="#2c3546" opacity="0.14"/>
    <path id="Path_213" data-name="Path 213" d="M185.841,114.877H166.587a.162.162,0,0,0-.084.3l5.6,3.382a1.78,1.78,0,0,0,.961.256l8.587-.189a1.287,1.287,0,0,0,.835-.334q1.731-1.571,3.462-3.14A.158.158,0,0,0,185.841,114.877Z" transform="translate(-153.338 -109.132)" fill="#2c3546"/>
    <path id="Path_214" data-name="Path 214" d="M178.626,118.743l2.536-.056c-.514-1.252-.989-2.526-1.447-3.809h-3.146C177.221,116.185,177.895,117.479,178.626,118.743Z" transform="translate(-155.577 -109.132)" fill="#2c3546" opacity="0.14"/>
    <path id="Path_215" data-name="Path 215" d="M172.938,114.877h-6.352a.162.162,0,0,0-.083.3l5.6,3.382a1.78,1.78,0,0,0,.961.256l1.9-.041C174.249,117.5,173.585,116.191,172.938,114.877Z" transform="translate(-153.338 -109.132)" fill="#2c3546" opacity="0.14"/>
    <path id="Path_216" data-name="Path 216" d="M189.4,114.877h-6.855c.441,1.253.839,2.535,1.311,3.779l1.353-.03a1.287,1.287,0,0,0,.835-.334q1.731-1.571,3.462-3.14A.158.158,0,0,0,189.4,114.877Z" transform="translate(-156.895 -109.132)" fill="#2c3546" opacity="0.14"/>
    <path id="Path_217" data-name="Path 217" d="M193.606,115.221q-1.547,1.4-3.087,2.8a.287.287,0,0,0,.2.5l9.273-.2a2.958,2.958,0,0,0,.555-.065l14.792-3.16a.108.108,0,0,0-.023-.214H194.5A1.331,1.331,0,0,0,193.606,115.221Z" transform="translate(-158.634 -109.132)" fill="#2c3546"/>
    <path id="Path_218" data-name="Path 218" d="M190.719,118.52l3.859-.085q3.16-1.749,6.285-3.559H194.5a1.331,1.331,0,0,0-.895.344q-1.547,1.4-3.087,2.8A.287.287,0,0,0,190.719,118.52Z" transform="translate(-158.634 -109.132)" fill="#2c3546" opacity="0.14"/>
    <path id="Path_219" data-name="Path 219" d="M217.247,114.877H205.276q-3.034,1.777-6.1,3.5l2.745-.061a2.958,2.958,0,0,0,.555-.065l14.792-3.16A.108.108,0,0,0,217.247,114.877Z" transform="translate(-160.565 -109.132)" fill="#2c3546" opacity="0.14"/>
    <path id="Path_220" data-name="Path 220" d="M185.841,152.993H166.587a.162.162,0,0,1-.084-.3l5.6-3.382a1.775,1.775,0,0,1,.961-.256l8.587.189a1.286,1.286,0,0,1,.835.334q1.731,1.571,3.462,3.141A.158.158,0,0,1,185.841,152.993Z" transform="translate(-153.338 -116.673)" fill="#2c3546"/>
    <path id="Path_221" data-name="Path 221" d="M166.586,152.993h4.073q1.7-1.965,3.414-3.917l-1.01-.023a1.774,1.774,0,0,0-.961.256l-5.6,3.382A.162.162,0,0,0,166.586,152.993Z" transform="translate(-153.338 -116.673)" fill="#2c3546" opacity="0.14"/>
    <path id="Path_222" data-name="Path 222" d="M180.355,149.194l-2.978-.065q-1.711,1.93-3.4,3.881h3.781Q179.047,151.1,180.355,149.194Z" transform="translate(-155.005 -116.69)" fill="#2c3546" opacity="0.14"/>
    <path id="Path_223" data-name="Path 223" d="M189.111,152.762q-1.731-1.569-3.462-3.141a1.287,1.287,0,0,0-.835-.334l-1.471-.032q-1.3,1.883-2.582,3.782H189A.158.158,0,0,0,189.111,152.762Z" transform="translate(-156.501 -116.718)" fill="#2c3546" opacity="0.14"/>
    <path id="Path_224" data-name="Path 224" d="M193.606,152.733q-1.547-1.4-3.087-2.8a.287.287,0,0,1,.2-.5l9.273.2a3.021,3.021,0,0,1,.555.065l14.792,3.161a.108.108,0,0,1-.023.214H194.5A1.335,1.335,0,0,1,193.606,152.733Z" transform="translate(-158.634 -116.757)" fill="#2c3546"/>
    <path id="Path_225" data-name="Path 225" d="M208.3,153.116h8.835a.108.108,0,0,0,.023-.214l-14.792-3.161a3.022,3.022,0,0,0-.555-.065l-3.146-.069C201.859,150.817,205.074,151.979,208.3,153.116Z" transform="translate(-160.452 -116.795)" fill="#2c3546" opacity="0.14"/>
    <path id="Path_226" data-name="Path 226" d="M193.182,149.488l-2.463-.055a.287.287,0,0,0-.2.5q1.542,1.4,3.087,2.8a1.335,1.335,0,0,0,.895.344h8.281C199.566,151.923,196.362,150.737,193.182,149.488Z" transform="translate(-158.634 -116.757)" fill="#2c3546" opacity="0.14"/>
    <path id="Path_227" data-name="Path 227" d="M167.343,121.608c.489,2.213,2.127,10.747.019,17.651a1.442,1.442,0,0,1-.531.736l-4.795,3.508a1.419,1.419,0,0,1-1.777-.07c-1.707-1.5-5.224-5.5-5.224-12.941,0-7.472,3.544-11.47,5.243-12.958a1.421,1.421,0,0,1,1.75-.088l4.737,3.3A1.417,1.417,0,0,1,167.343,121.608Z" transform="translate(-150.825 -109.642)" fill="#2c3546"/>
    <path id="Path_228" data-name="Path 228" d="M155.141,131.589c-.063.665-.105,1.351-.105,2.082,0,7.444,3.517,11.44,5.224,12.941a1.419,1.419,0,0,0,1.777.07l4.795-3.508a1.442,1.442,0,0,0,.531-.736,29.094,29.094,0,0,0,1.027-9.273C163.986,132.526,159.576,131.81,155.141,131.589Z" transform="translate(-150.825 -112.82)" fill="#2c3546" opacity="0.14"/>
    <path id="Path_229" data-name="Path 229" d="M197.622,121.216a120.7,120.7,0,0,0,0,20.175l-22.564-.532s6.105-6.193,10.707-19.643Z" transform="translate(-155.243 -110.531)" opacity="0.63" fill="url(#linear-gradient)"/>
    <path id="Path_230" data-name="Path 230" d="M250.137,153.894a12.991,12.991,0,0,1-.363-3.867c.278-1.043,4.057-4.024,8.563-3.576C258.337,146.451,255.783,152.547,250.137,153.894Z" transform="translate(-171.714 -116.089)" fill="#c2fcee"/>
    <path id="Path_231" data-name="Path 231" d="M250.137,112.336a12.991,12.991,0,0,0-.363,3.867c.278,1.043,3.99,4.03,8.5,3.582C258.27,119.785,255.783,113.683,250.137,112.336Z" transform="translate(-171.714 -108.571)" fill="#a1fce5"/>
    <path id="Path_232" data-name="Path 232" d="M249.869,153.664c.128.893.3,1.676.3,1.676a10.468,10.468,0,0,0,4.466-2.379A35.623,35.623,0,0,1,249.869,153.664Z" transform="translate(-171.75 -117.535)" fill="#00ffbf" opacity="0.56"/>
    <path id="Path_233" data-name="Path 233" d="M255,115.079a10.667,10.667,0,0,0-4.863-2.743,15.109,15.109,0,0,0-.408,3.622Q252.36,115.483,255,115.079Z" transform="translate(-171.714 -108.571)" fill="#00ffbf" opacity="0.56"/>
    <path id="Path_234" data-name="Path 234" d="M248.685,153.9a18.49,18.49,0,0,1-.853-4.417,3.325,3.325,0,0,1,1.408-1.916,12.267,12.267,0,0,1,9.135-2.5l-.157.4a11.614,11.614,0,0,0-8.715,2.421c-.9.739-1.241,1.332-1.255,1.615a18.577,18.577,0,0,0,.835,4.273Z" transform="translate(-171.3 -115.768)" fill="#00ffbf" opacity="0.56"/>
    <path id="Path_235" data-name="Path 235" d="M256.725,120.842a12.35,12.35,0,0,1-7.486-2.624,3.324,3.324,0,0,1-1.408-1.917,18.2,18.2,0,0,1,.84-4.376l.4.12a18.248,18.248,0,0,0-.824,4.236c.014.283.352.876,1.255,1.615a11.4,11.4,0,0,0,8.635,2.432l.16.4A10.219,10.219,0,0,1,256.725,120.842Z" transform="translate(-171.3 -108.481)" fill="#00ffbf" opacity="0.56"/>
    <path id="Path_236" data-name="Path 236" d="M252.357,118.609a8.712,8.712,0,0,0,3.391,1.279c.591.09.846-.814.249-.9a8.052,8.052,0,0,1-3.167-1.184c-.51-.326-.982.486-.474.81Z" transform="translate(-172.251 -109.76)" fill="#d6fff5" opacity="0.71"/>
    <path id="Path_237" data-name="Path 237" d="M252.765,150.147a20.707,20.707,0,0,1,3.046-1.691c.549-.248.072-1.057-.474-.811a20.687,20.687,0,0,0-3.046,1.692c-.5.334-.03,1.148.474.81Z" transform="translate(-172.238 -116.352)" fill="#d6fff5" opacity="0.71"/>
    <path id="Path_238" data-name="Path 238" d="M230.276,114.606q4.366-.573,8.754-.941c.8-.067.8-1.319,0-1.251q-4.388.368-8.754.941c-.787.1-.8,1.356,0,1.251Z" transform="translate(-167.296 -108.588)" fill="#00ffbf" opacity="0.63"/>
    <path id="Path_239" data-name="Path 239" d="M244,113.483a10.947,10.947,0,0,0,1.668-.075.644.644,0,0,0,.625-.625.629.629,0,0,0-.625-.626,11.045,11.045,0,0,1-1.668.075c-.805-.026-.8,1.226,0,1.251Z" transform="translate(-170.323 -108.531)" fill="#00ffbf" opacity="0.63"/>
    <path id="Path_240" data-name="Path 240" d="M259.492,125.526a19.957,19.957,0,0,1,.479,3.735c.027.8,1.278.807,1.251,0a21.735,21.735,0,0,0-.523-4.067c-.177-.785-1.383-.453-1.206.333Z" transform="translate(-173.87 -111.309)" fill="#00ffbf" opacity="0.63"/>
    <path id="Path_241" data-name="Path 241" d="M234.774,129.4q2.465-.631,4.968-1.09a.626.626,0,0,0-.192-1.236q-2.5.458-4.968,1.09c-.773.2-.588,1.436.193,1.236Z" transform="translate(-168.268 -111.82)" fill="#00ffbf" opacity="0.33"/>
    <path id="Path_242" data-name="Path 242" d="M243.754,127.918l2.218-.216c.8-.077.62-1.316-.181-1.238l-2.218.215c-.8.078-.62,1.316.181,1.238Z" transform="translate(-170.247 -111.688)" fill="#00ffbf" opacity="0.33"/>
    <path id="Path_243" data-name="Path 243" d="M174.792,123.227h3.545a.626.626,0,0,0,0-1.251h-3.545a.626.626,0,0,0,0,1.251Z" transform="translate(-155.051 -110.698)" fill="#00ffbf" opacity="0.63"/>
    <path id="Path_244" data-name="Path 244" d="M181.66,123.315l2.433-.067a.626.626,0,0,0,0-1.251l-2.433.066a.626.626,0,0,0,0,1.252Z" transform="translate(-156.567 -110.703)" fill="#00ffbf" opacity="0.63"/>
    <path id="Path_245" data-name="Path 245" d="M221.927,107.959a9.086,9.086,0,0,0,.29,1.7.219.219,0,0,0,.422-.117,8.484,8.484,0,0,1-.274-1.581c-.021-.279-.459-.281-.438,0Z" transform="translate(-165.585 -107.559)" fill="#00ffbf" opacity="0.63"/>
    <path id="Path_246" data-name="Path 246" d="M222.512,111.027l.109.468c.064.275.486.159.422-.116l-.109-.468c-.063-.274-.486-.158-.422.117Z" transform="translate(-165.713 -108.222)" fill="#00ffbf" opacity="0.63"/>
    <path id="Path_247" data-name="Path 247" d="M212.578,121.617l7.449-1.463c.789-.154.455-1.361-.333-1.206l-7.449,1.462c-.789.155-.455,1.362.333,1.207Z" transform="translate(-163.349 -110.027)" fill="#354154" opacity="0.67"/>
    <path id="Path_248" data-name="Path 248" d="M225.013,119.727a16.727,16.727,0,0,1,1.936-.3c.795-.074.8-1.326,0-1.251a19.7,19.7,0,0,0-2.269.342c-.787.167-.454,1.373.333,1.206Z" transform="translate(-166.093 -109.86)" fill="#354154" opacity="0.67"/>
    <path id="Path_249" data-name="Path 249" d="M158.433,126.467a15.145,15.145,0,0,1,2.192-3.713c.5-.623-.38-1.513-.885-.885a17.238,17.238,0,0,0-2.514,4.265c-.305.744.9,1.068,1.206.333Z" transform="translate(-151.298 -110.628)" fill="#354154" opacity="0.67"/>
    <path id="Path_250" data-name="Path 250" d="M162.589,120.517l.927-.855a.626.626,0,0,0-.885-.885l-.926.855a.625.625,0,0,0,.885.885Z" transform="translate(-152.257 -109.953)" fill="#354154" opacity="0.67"/>
    <path id="Path_251" data-name="Path 251" d="M154.47,148.43a12.538,12.538,0,0,0-3.788-1.5l.2.485a11.162,11.162,0,0,1,3.311,1.325c.592.539.008,2.3-.279,2.952l.327.291C154.356,151.713,155.388,149.266,154.47,148.43Z" transform="translate(-149.864 -116.204)" fill="#00ffbf" opacity="0.56"/>
    <path id="Path_252" data-name="Path 252" d="M157.888,115.912a16.01,16.01,0,0,1,5.486-2.146c.789-.153.455-1.359-.333-1.206a17.028,17.028,0,0,0-5.785,2.272c-.682.425-.055,1.507.632,1.081Z" transform="translate(-151.25 -108.618)" fill="#00ffbf" opacity="0.63"/>
    <path id="Path_253" data-name="Path 253" d="M167.726,113.41a15.961,15.961,0,0,1,2.13-.169.626.626,0,0,0,0-1.252,18.49,18.49,0,0,0-2.463.214.63.63,0,0,0-.437.769.642.642,0,0,0,.77.437Z" transform="translate(-153.451 -108.495)" fill="#00ffbf" opacity="0.63"/>
    <path id="Path_254" data-name="Path 254" d="M154.431,121.655s-3.157,9.759,0,19.289l-3.393-1.132s-1.444-10.389.027-15.807Z" transform="translate(-149.803 -110.628)" opacity="0.63" fill="url(#linear-gradient)"/>
  </g>
</svg>
