<?xml version="1.0" encoding="utf-8"?>
<!-- Generator: Adobe Illustrator 23.1.0, SVG Export Plug-In . SVG Version: 6.00 Build 0)  -->
<svg version="1.1" id="圖層_1" xmlns="http://www.w3.org/2000/svg" xmlns:xlink="http://www.w3.org/1999/xlink" x="0px" y="0px"
	 viewBox="0 0 1298 759.2" style="enable-background:new 0 0 1298 759.2;" xml:space="preserve">
<style type="text/css">
	.st0{opacity:0.6;}
	.st1{fill:none;stroke:#82C0B0;stroke-width:2.668;stroke-miterlimit:10;}
	.st2{fill:none;stroke:#82C0B0;stroke-width:1.977;stroke-miterlimit:10;}
	.st3{fill:#E4E3E3;}
	.st4{fill:none;stroke:#A9D9D2;stroke-width:1.334;stroke-miterlimit:10;}
	.st5{fill:none;stroke:#8DD1E1;stroke-width:0.667;stroke-miterlimit:10;}
	.st6{fill:#8DD1E1;}
	.st7{fill:#1B1C1B;stroke:#1B1C1B;stroke-width:0.846;stroke-miterlimit:10;}
	.st8{fill:#FFFFFF;stroke:#717070;stroke-width:0.846;stroke-miterlimit:10;}
	.st9{fill:#FFFFFF;}
	.st10{fill:url(#Path_54_1_);}
	.st11{fill:url(#Path_56_1_);}
	.st12{fill:url(#Path_58_1_);}
	.st13{fill:url(#Path_60_1_);}
	.st14{fill:url(#Path_62_1_);}
	.st15{fill:url(#Path_64_1_);}
	.st16{fill:url(#Path_66_1_);}
	.st17{fill:url(#Path_68_1_);}
	.st18{fill:url(#Path_70_1_);}
	.st19{fill:#16353A;}
	.st20{fill:url(#Path_72_1_);}
</style>
<g id="Group_572" transform="translate(-753.011 -38)">
	<g id="效果3" transform="translate(355.865 83.5)" class="st0">
		<path id="Path_23_1_" class="st1" d="M1748.1,90.6h-80.2L1509.9-29h-204"/>
		<path id="Path_24_2_" class="st1" d="M1017.4,669.6h340.7l158-119.6h325.1"/>
		<path id="Path_25" class="st2" d="M418,687.8h252.4l117-88.6h283.8"/>
		<path id="Path_26_1_" class="st1" d="M1816,494.7l-158,119.6h-383.1l-158-119.6h-69.1"/>
		<path id="Path_27" class="st3" d="M1266.7,548v-53.3l-30.4,26.7L1266.7,548z"/>
		<path id="Path_28" class="st3" d="M771.4,685.6v-34.5l-19.7,17.3L771.4,685.6z"/>
		<path id="Path_29" class="st3" d="M815.4,81.6V28.2L785,54.9L815.4,81.6z"/>
		<path id="Path_30_1_" class="st4" d="M1713.8,376.7l-74.3,56.2h-180.1"/>
		<path id="Path_31_1_" class="st5" d="M1832.4,383.9l-158,119.6h-383.1"/>
		<path id="Path_32_1_" class="st5" d="M1832.4,122.7l-158,119.6h-383.1l-158-119.6h-406"/>
		<path id="Path_33_2_" class="st5" d="M1674.4,381"/>
		<g id="Group_15" transform="translate(958.669 245.799)">
			<path id="Path_34_1_" class="st4" d="M17.1-50.9H316l74.3-56.2h180.1l74.3,56.2"/>
			<circle id="Ellipse_1" class="st4" cx="9" cy="-49.9" r="11.2"/>
		</g>
		<g id="Group_16" transform="translate(1334.695 96.823)">
			<path id="Path_35_2_" class="st4" d="M396.5-99.1h-385"/>
			<circle id="Ellipse_2" class="st4" cx="5.7" cy="-99.1" r="8"/>
		</g>
		<g id="Group_19" transform="translate(1242.598 406.362)">
			<g id="Group_18" transform="translate(22.497 0)">
				<path id="Path_38_2_" class="st4" d="M352.3-81.7h83.4"/>
				<path id="Path_39" class="st4" d="M-2.3-81.7h83.4l33.6-25.5h81.5l33.6,25.4h200.7"/>
			</g>
			<circle id="Ellipse_3" class="st4" cx="9" cy="-81.7" r="11.2"/>
		</g>
		<g id="Group_21" transform="translate(1487.325 144.622)">
			<g id="Group_20" transform="translate(15.29 8.712)">
				<path id="Path_40_1_" class="st5" d="M268.3-107.1l-26,19.7h-63.1l-26-19.7H-2.3"/>
				<path id="Path_41_1_" class="st5" d="M272.3-107.1"/>
			</g>
			<circle id="Ellipse_6" class="st6" cx="6.4" cy="-98.4" r="8.7"/>
		</g>
		<g id="Group_23" transform="translate(1545.833 680.566)">
			<g id="Group_22" transform="translate(17.424)">
				<path id="Path_43_2_" class="st5" d="M-2.3-87.4h64.6l26-19.7h63.1"/>
			</g>
			<circle id="Ellipse_7" class="st6" cx="6.4" cy="-87.4" r="8.7"/>
		</g>
		<g id="Group_24" transform="translate(1193.581 381.714)">
			<path id="Path_44_2_" class="st5" d="M661.7-15.6H396.6L287.3-98.4H6.4"/>
			<path id="Path_45" class="st6" d="M15.1-98.4c0,4.8-3.9,8.7-8.7,8.7s-8.7-3.9-8.7-8.7c0-4.8,3.9-8.7,8.7-8.7
				S15.1-103.2,15.1-98.4L15.1-98.4z"/>
		</g>
		<path id="Path_46" class="st3" d="M1507.1,712.9v-41.4l-23.6,20.7L1507.1,712.9z"/>
		<path id="Path_48" class="st3" d="M1305.9,104.2V62.8l-23.6,20.7L1305.9,104.2z"/>
		<g id="Group_25" transform="translate(904.046 635.984)">
			<path id="Path_49_2_" class="st5" d="M10.9-2.1h376.3l138.7-105h336.2"/>
			<path id="Path_50" class="st6" d="M15.1-2.1c0,4.8-3.9,8.7-8.7,8.7s-8.7-3.9-8.7-8.7c0-4.8,3.9-8.7,8.7-8.7S15.1-6.9,15.1-2.1z"
				/>
		</g>
		<circle id="Ellipse_9" class="st2" cx="407.1" cy="686.4" r="11.2"/>
	</g>
	<g id="Group_55" transform="translate(544.349 422.029)">
		<g id="Group_31" transform="translate(329.434 155.566)">
			<g id="Group_26" transform="translate(713.049)">
				<path id="Path_51" class="st7" d="M114.5-87.2c-2-0.7-16.5-4-16.5-4s-24.8-15.9-28.2-15.9s-26.4,0-26.4,0
					c-5.6,0-11.2,4.3-17.6,9.2c-3,2.3-6.3,4.9-9.9,7.2L4-89.1c-1.8,0.6-3.2,2.1-3.7,4l-2.5,13.3c-0.5,1.8,0.6,3.6,2.4,4.1
					c0.3,0.1,0.6,0.1,1,0.1h8c-0.9,5.7,3.1,11,8.7,11.8c0.7,0.1,1.3,0.1,2,0.1c6.8,0,13.5-5.3,15.4-12h38.2
					c-0.9,5.7,3.1,11,8.7,11.8c0.7,0.1,1.3,0.1,2,0.1c6.8,0,13.5-5.3,15.4-12h6.6c5.2,0,8.2-2.2,9.2-4.4
					C117.9-77.4,118.4-85.8,114.5-87.2z M21.1-62c-3,0.1-5.5-2.2-5.6-5.2c0-0.5,0-1,0.2-1.6c0.8-3.8,4.2-6.6,8.1-6.8
					c3-0.1,5.5,2.2,5.6,5.2c0,0.5,0,1-0.2,1.6C28.3-65,25-62.2,21.1-62z M51.9-91.2H29.2c1.9-1.3,3.7-2.7,5.3-4
					c4.3-3.4,8.1-6.3,11.9-6.3h7.5L51.9-91.2z M59.5-101.5H66c3.1,0,14.4,7.4,18.6,10.2H57.5L59.5-101.5z M85.3-62
					c-3,0.1-5.5-2.2-5.6-5.2c0-0.5,0-1.1,0.2-1.6c0.8-3.8,4.2-6.6,8.1-6.8c3-0.1,5.5,2.2,5.6,5.2c0,0.5,0,1-0.2,1.6
					C92.6-65,89.2-62.2,85.3-62z"/>
			</g>
			<g id="Group_27" transform="translate(0 44.568)">
				<rect id="Rectangle_33" x="-2.3" y="-107.1" class="st7" width="694.5" height="3.6"/>
			</g>
			<g id="Group_28" transform="translate(656.98 35.655)">
				<rect id="Rectangle_34" x="-2.3" y="-107.1" class="st7" width="42.8" height="3.6"/>
			</g>
			<g id="Group_29" transform="translate(681.888 26.741)">
				<rect id="Rectangle_35" x="-2.3" y="-107.1" class="st7" width="21.4" height="3.6"/>
			</g>
			<g id="Group_30" transform="translate(697.882 17.828)">
				<rect id="Rectangle_36" x="-2.3" y="-107.1" class="st7" width="10.7" height="3.6"/>
			</g>
		</g>
		<g id="Group_37" transform="translate(327.651 153.785)">
			<g id="Group_32" transform="translate(713.048)">
				<path id="Path_52" class="st8" d="M114.5-87.2c-2-0.7-16.5-4-16.5-4s-24.8-15.9-28.2-15.9s-26.4,0-26.4,0
					c-5.6,0-11.2,4.3-17.6,9.2c-3,2.3-6.3,4.9-9.9,7.2L4-89.1c-1.8,0.6-3.2,2.1-3.7,4l-2.5,13.3c-0.5,1.8,0.6,3.6,2.4,4.1
					c0.3,0.1,0.6,0.1,1,0.1h8c-0.7,6.7,3.9,12,10.7,12s13.5-5.3,15.4-12h38.2c-0.9,5.7,3.1,11,8.7,11.8c0.7,0.1,1.3,0.1,2,0.1
					c6.8,0,13.5-5.3,15.4-12h6.6c5.2,0,8.2-2.2,9.2-4.4C117.9-77.4,118.4-85.8,114.5-87.2z M21.1-62c-3,0.1-5.5-2.2-5.6-5.2
					c0-0.5,0-1,0.2-1.6c0.8-3.8,4.2-6.6,8.1-6.8c3-0.1,5.5,2.2,5.6,5.2c0,0.5,0,1-0.2,1.6C28.3-65,25-62.2,21.1-62z M51.9-91.2H29.2
					c1.9-1.3,3.7-2.7,5.3-4c4.3-3.4,8.1-6.3,11.9-6.3h7.5L51.9-91.2L51.9-91.2z M59.5-101.5c2.8,0,5.3,0,6.6,0
					c3.1,0,14.4,7.4,18.6,10.2H57.5L59.5-101.5L59.5-101.5z M85.3-62c-3,0.1-5.5-2.2-5.6-5.2c0-0.5,0-1,0.2-1.6
					c0.8-3.8,4.2-6.6,8.1-6.8c3-0.1,5.5,2.2,5.6,5.2c0,0.5,0,1-0.2,1.6C92.6-65,89.2-62.2,85.3-62L85.3-62z"/>
			</g>
			<g id="Group_33" transform="translate(0 44.567)">
				<rect id="Rectangle_37" x="-2.3" y="-107.1" class="st8" width="694.5" height="3.6"/>
			</g>
			<g id="Group_34" transform="translate(656.98 35.654)">
				<rect id="Rectangle_38" x="-2.3" y="-107.1" class="st8" width="42.8" height="3.6"/>
			</g>
			<g id="Group_35" transform="translate(681.888 26.74)">
				<rect id="Rectangle_39" x="-2.3" y="-107.1" class="st8" width="21.4" height="3.6"/>
			</g>
			<g id="Group_36" transform="translate(697.882 17.826)">
				<rect id="Rectangle_40" x="-2.3" y="-107.1" class="st8" width="10.7" height="3.6"/>
			</g>
		</g>
		<g id="Group_54" transform="translate(339.146 107.462)">
			<g id="Group_49">
				<g id="Group_48">
					<g id="Group_38" transform="translate(0 4.082)">
						<path id="Path_53" class="st9" d="M1-35.5l1.9-8.9h26.5c0.3,0,0.5-0.2,0.6-0.5l1.6-7.5c0.1-0.3-0.1-0.7-0.5-0.7H31H12.5
							l1.8-8.6h18.8c0.3,0,0.5-0.2,0.6-0.5l1.6-7.3c0-0.2,0-0.4-0.1-0.5s-0.3-0.2-0.5-0.2H20.1l1.3-6.1c0.1-0.2,0-0.5-0.2-0.6
							c-0.2-0.1-0.5-0.2-0.7,0c-3.7,2-7.1,3.8-10.1,5.1c-1.2-3-2.6-5.8-4.4-8.3c9.3-3.5,18-8.2,26.1-14c0.3-0.2,0.3-0.6,0.1-0.9
							c-0.1-0.2-0.3-0.3-0.5-0.3h-7.4l2-9.3h27.8c4.8,10,14.9,18.8,26.6,23.4c-3.2,2.9-6.2,6.1-8.8,9.5c-2.8-1.5-5.5-3.2-8-5
							c-0.2-0.1-0.3-0.1-0.4-0.1s-0.2,0-0.2,0c-0.2,0.1-0.3,0.2-0.4,0.5l-1.3,6.1H46.7c-0.3,0-0.5,0.2-0.6,0.5l-1.5,7.3
							c-0.1,0.3,0.1,0.7,0.5,0.7h0.1H64l-1.8,8.6h-19c-0.3,0-0.5,0.2-0.6,0.5L41-45.1c-0.1,0.3,0.1,0.7,0.5,0.7h0.1h27.3L67-35.5
							L1-35.5z M46.1-95.2c-0.2,0-0.4,0.1-0.5,0.2c-6.2,5.6-12.9,10.6-20,14.9c-0.3,0.2-0.4,0.6-0.2,0.9c0.1,0.2,0.3,0.3,0.5,0.3
							h33.4c0.3,0,0.6-0.3,0.6-0.6c0-0.2-0.1-0.4-0.2-0.5c-5-4.3-9.4-9.3-13-14.9C46.5-95.1,46.3-95.2,46.1-95.2L46.1-95.2z"/>
						
							<radialGradient id="Path_54_1_" cx="-249.4902" cy="1701.6771" r="48.252" gradientTransform="matrix(0.839 9.700000e-02 4.500000e-02 -0.385 125.7944 490.1889)" gradientUnits="userSpaceOnUse">
							<stop  offset="0" style="stop-color:#284F58"/>
							<stop  offset="8.600000e-02" style="stop-color:#1E4651"/>
							<stop  offset="0.297" style="stop-color:#123945"/>
							<stop  offset="0.557" style="stop-color:#0A313E"/>
							<stop  offset="1" style="stop-color:#082F3C"/>
						</radialGradient>
						<path id="Path_54" class="st10" d="M54.1-104.5c4.8,9.9,14.9,18.7,26.6,23.3c-3.2,2.9-6.2,6.1-8.8,9.5c-2.8-1.5-5.5-3.2-8-5
							c-0.2-0.1-0.3-0.1-0.4-0.1s-0.2,0-0.2,0c-0.2,0.1-0.3,0.2-0.4,0.5l-1.3,6.1H46.7c-0.3,0-0.5,0.2-0.6,0.5l-1.5,7.3
							c-0.1,0.3,0.1,0.7,0.5,0.7h0.1H64l-1.8,8.6h-19c-0.3,0-0.5,0.2-0.6,0.5L41-45.1c-0.1,0.3,0.1,0.7,0.5,0.7h0.1h27.3L67-35.5H1
							l1.9-8.9h26.5c0.3,0,0.5-0.2,0.6-0.5l1.6-7.5c0.1-0.3-0.1-0.7-0.5-0.7H31H12.5l1.8-8.6h18.8c0.3,0,0.5-0.2,0.6-0.5l1.6-7.3
							c0-0.2,0-0.4-0.1-0.5s-0.3-0.2-0.5-0.2H20.1l1.3-6.1c0.1-0.2,0-0.5-0.2-0.6c-0.2-0.1-0.5-0.2-0.7,0c-3.7,2-7.1,3.8-10.1,5.1
							c-1.2-3-2.6-5.8-4.4-8.3c9.3-3.5,18-8.2,26.1-14c0.3-0.2,0.3-0.6,0.1-0.9c-0.1-0.2-0.3-0.3-0.5-0.3h-7.4l2-9.3L54.1-104.5
							 M25.9-79h33.4c0.3,0,0.6-0.3,0.6-0.6c0-0.2-0.1-0.4-0.2-0.5c-5-4.3-9.4-9.3-13-14.9c-0.1-0.2-0.3-0.3-0.5-0.3
							s-0.4,0.1-0.5,0.2c-6.2,5.6-12.9,10.6-20,14.9c-0.3,0.2-0.4,0.6-0.2,0.9C25.5-79.1,25.7-79,25.9-79 M55.8-107.1H24.1l-0.5,2.1
							l-2,9.3L21-92.5h4c-6.3,4-12.9,7.4-19.9,9.9l-3.4,1.2l2.2,2.9c1.6,2.3,3,4.8,4,7.5l1,2.6l2.6-1.1c2-0.9,4.2-1.9,6.4-3.1
							l-0.4,1.8l-0.7,3.2h15.3l-0.7,3.2H12.1l-0.4,2.1l-1.8,8.6l-0.7,3.2h19.3l-0.7,3.4h-27L0.3-45l-1.9,8.9l-0.7,3.3h71.4l0.5-2.1
							l1.9-8.9l0.7-3.2H44l0.7-3.4h19.5l0.4-2.1l1.8-8.6l0.7-3.2H47.7l0.7-3.2h15.4l0.4-2.1l0.7-3.1c1.9,1.2,3.8,2.4,5.8,3.5l2,1.1
							l1.4-1.8c2.6-3.3,5.4-6.3,8.5-9.1l3.2-2.9l-4-1.6c-11.1-4.4-20.8-12.8-25.2-22L55.8-107.1L55.8-107.1z M32.8-81.6
							c4.5-3,8.8-6.3,12.9-9.9c2.5,3.5,5.3,6.8,8.3,9.9H32.8z"/>
					</g>
					<g id="Group_39" transform="translate(79.023 1.173)">
						<path id="Path_55" class="st9" d="M36.3-30.8c0-3.3-0.5-6.5-1.3-9.7c3.1,0.1,6.2,0.1,7.3,0.1c1.3,0.2,2.4-0.7,2.6-2v-0.1
							l2-9.6c0.1-0.3-0.1-0.5-0.3-0.7c-0.1-0.1-0.2-0.1-0.3-0.1s-0.3,0-0.4,0.1c-4.7,3.8-9.7,7.6-14.1,10.9l-2.7,2.1l-2.4-5.5
							c-0.1-0.2-0.3-0.4-0.6-0.4c-0.1,0-0.1,0-0.2,0c-6.1,1.8-12.5,3.7-18.4,5.4l-7,2v-9.5c2.8-0.6,5.8-1.4,8.9-2.2
							c0.2-0.1,0.4-0.2,0.4-0.5l3.7-17.4c0.1-0.3-0.1-0.7-0.5-0.7h-0.1H6.3l2-9.2h6.8c0.3,0,0.5-0.2,0.6-0.5l2.6-12
							c0-0.2,0-0.4-0.1-0.5c-0.2,0.1-0.4,0-0.6,0h-6.8l2-9.3H37l-2,9.3h-6.8c-0.3,0-0.5,0.2-0.6,0.5l-2.6,12c0,0.2,0,0.4,0.1,0.5
							s0.3,0.2,0.5,0.2H31l-2,9.2h-5.7c-0.3,0-0.5,0.2-0.6,0.5l-3.1,14.4c0,0.2,0,0.4,0.2,0.6c0.1,0.1,0.3,0.2,0.4,0.2s0.1,0,0.2,0
							l6.7-1.9L27-51c0,0.2,0.1,0.4,0.3,0.6c0.1,0.1,0.2,0.1,0.3,0.1c0.1,0,0.2,0,0.3-0.1c7-4.1,16.2-10.1,21.1-13.4
							c0.1-0.1,0.2-0.2,0.3-0.4l3.8-18c0.1-0.3-0.1-0.7-0.5-0.7h-0.1H35.9l1.9-9.1h17c0.3,0,0.5-0.2,0.6-0.5l2.5-11.6h9.7l-2.4,11.3
							c0,0.2,0,0.4,0.1,0.5c0.1,0.1,0.3,0.2,0.5,0.2h8.7c0.3,0,0.6-0.3,0.6-0.6c0-0.1,0-0.3-0.1-0.4c-1.6-2.1-3.4-4-5.4-5.7l6.5-5
							c2.6,2,4.9,4.2,7,6.7l-4.9,3.9c-0.3,0.2-0.3,0.6-0.1,0.9c0.1,0.1,0.3,0.2,0.5,0.2h5L81.7-83h-18c-0.3,0-0.5,0.2-0.6,0.5
							l-0.8,3.7c0,2.9,0,5.8,0.3,8.7c0,0.2,0.2,0.5,0.4,0.5c0.1,0,0.1,0,0.2,0c0.2,0,0.3-0.1,0.4-0.2c2.9-2.9,5.7-6,8.3-9.3l7.6,4.3
							c-6.3,6.1-11.2,10.6-15,13.6c-0.2,0.2-0.3,0.4-0.2,0.7c1.8,6,5.4,11.2,10.3,15.1c-3,2.2-5.7,4.8-7.9,7.8
							c-4-3.6-7.2-8.1-9.3-13.2c-0.1-0.2-0.3-0.4-0.6-0.4h-0.1c-0.3,0-0.5,0.2-0.6,0.5l-1.7,7.8c-1.1,5.4-2.7,8-5.8,9.6
							C45.5-31.2,41.4-30.8,36.3-30.8z M38-62.7c-0.6-4.3-1.7-8.5-3.3-12.6l8.5-3.4c1.8,3.9,3.1,7.9,3.9,12.1L38-62.7z"/>
						
							<radialGradient id="Path_56_1_" cx="-285.4583" cy="1623.563" r="47.556" gradientTransform="matrix(0.88 0.102 4.700000e-02 -0.404 177.8022 503.6097)" gradientUnits="userSpaceOnUse">
							<stop  offset="0" style="stop-color:#284F58"/>
							<stop  offset="8.600000e-02" style="stop-color:#1E4651"/>
							<stop  offset="0.297" style="stop-color:#123945"/>
							<stop  offset="0.557" style="stop-color:#0A313E"/>
							<stop  offset="1" style="stop-color:#082F3C"/>
						</radialGradient>
						<path id="Path_56" class="st11" d="M67.7-104.1l-2.4,11.3c0,0.2,0,0.4,0.1,0.5s0.3,0.2,0.5,0.2h8.7c0.3,0,0.6-0.3,0.6-0.6
							c0-0.1,0-0.3-0.1-0.4c-1.6-2.1-3.4-4-5.4-5.7l6.5-5c2.6,2,4.9,4.2,7,6.7l-4.9,3.9C78-93,78-92.6,78.2-92.3
							c0.1,0.1,0.3,0.2,0.5,0.2h5L81.8-83h-18c-0.3,0-0.5,0.2-0.6,0.5l-0.9,3.7c0,2.9,0,5.8,0.3,8.7c0,0.2,0.2,0.5,0.4,0.5
							c0.1,0,0.1,0,0.2,0c0.2,0,0.3-0.1,0.4-0.2c2.9-2.9,5.7-6,8.3-9.3l7.6,4.3c-6.3,6.1-11.2,10.6-15,13.6
							c-0.2,0.2-0.3,0.4-0.2,0.7c1.8,6,5.4,11.2,10.3,15.1c-3,2.2-5.7,4.8-7.9,7.8c-4-3.6-7.2-8.1-9.3-13.2
							c-0.1-0.2-0.3-0.4-0.6-0.4h-0.1c-0.3,0-0.5,0.2-0.6,0.5l-1.7,7.8c-1.1,5.4-2.7,8-5.8,9.6c-3.3,1.8-7.4,2.2-12.5,2.3
							c0-3.3-0.5-6.5-1.3-9.7c3.1,0.1,6.2,0.1,7.3,0.1c1.3,0.2,2.4-0.7,2.6-2v-0.1l2-9.6c0.1-0.3-0.1-0.5-0.3-0.7
							c-0.1-0.1-0.2-0.1-0.3-0.1s-0.3,0-0.4,0.1C41-49.2,36-45.4,31.6-42.1L29-39.6l-2.4-5.5c-0.1-0.2-0.3-0.4-0.6-0.4
							c-0.1,0-0.1,0-0.2,0c-6.1,1.8-12.5,3.7-18.4,5.4l-7,2v-9.5c2.8-0.6,5.8-1.4,8.9-2.2c0.2-0.1,0.4-0.2,0.4-0.5l3.7-17.4
							c0.1-0.3-0.1-0.7-0.5-0.7h-0.1H6.3l2-9.2h6.8c0.3,0,0.5-0.2,0.6-0.5l2.6-12c0-0.2,0-0.4-0.1-0.5c-0.2-0.1-0.4-0.2-0.6-0.2
							h-6.8l2-9.3H37l-2,9.3h-6.8c-0.3,0-0.5,0.2-0.6,0.5l-2.6,12c0,0.2,0,0.4,0.1,0.5s0.3,0.2,0.5,0.2H31l-2,9.2h-5.7
							c-0.3,0-0.5,0.2-0.6,0.5l-3.1,14.4c0,0.2,0,0.4,0.2,0.6c0.1,0.1,0.3,0.2,0.4,0.2s0.1,0,0.2,0l6.7-1.9L27-51
							c0,0.2,0.1,0.4,0.3,0.6c0.1,0.1,0.2,0.1,0.3,0.1c0.1,0,0.2,0,0.3-0.1c7-4.1,16.2-10.1,21.1-13.4c0.1-0.1,0.2-0.2,0.3-0.4
							l3.8-18c0.1-0.3-0.1-0.7-0.5-0.7h-0.1H35.9l1.9-9.1h17c0.3,0,0.5-0.2,0.6-0.5l2.5-11.6H67.7 M43.1-78.7
							c1.8,3.9,3.1,7.9,3.9,12.1l-9,3.8c-0.6-4.3-1.7-8.5-3.3-12.6L43.1-78.7 M76.2-107.1l-1.7,1.3l-4.5,3.5l0.3-1.2l0.7-3.2H55.8
							l-0.5,2.1l-2.1,10H38.6l1-4.9l0.7-3.2H10.6l-0.5,2.1l-2,9.3l-0.7,3.2H15l-1.7,7.9H6.1l-0.5,2.1l-2,9.2L3-65.7h7.3L7.4-52
							c-2.7,0.7-5.2,1.3-7.6,1.9l-2.1,0.5v2.1v9.5v3.6l3.4-1l7-2c5.5-1.6,11.2-3.3,16.7-4.9l1.7,3.8l1.4,3.1l2.7-2l1.9-1.5
							c0.7,2.6,1,5.4,1,8.1L33.4-28h2.8c4.7,0,9.6-0.4,13.8-2.6c4.4-2.3,6.1-6.2,7.2-11.4l0.5-2.2c2,3.3,4.4,6.2,7.3,8.8l2.2,2.1
							l1.8-2.5c2-2.7,4.5-5.2,7.3-7.2l2.9-2l-2.7-2.2c-4.1-3.2-7.3-7.6-9-12.5c3.7-3,8.3-7.2,14.1-12.8l2.6-2.5l-3.1-1.8l-5.8-3.3
							H84l0.5-2.1l1.9-9.1l0.7-3.2h-2.5l0.4-0.3l2-1.6l-1.6-2.1c-2.4-2.8-4.8-5.2-7.6-7.3L76.2-107.1L76.2-107.1z M68.4-94.7
							l0.3-1.4c0.5,0.4,0.9,0.9,1.4,1.4H68.4z M29.9-88.1h4.4l-1,4.7l-0.7,3.2h-4.4L29.9-88.1L29.9-88.1z M65.3-80.2h4.2
							c-1.3,1.6-2.8,3.4-4.5,5.3c0-1.1,0-2.3,0-3.5L65.3-80.2L65.3-80.2z M45.4-80.2h4.7l-1.7,8c-0.8-2.6-1.8-5.1-2.9-7.6L45.4-80.2
							L45.4-80.2z M34.4-80.2h5.3l-5.8,2.3L34.4-80.2z M25.1-65.7h6.2l0.5-2.1l1-4.9c1.2,3.3,2,6.7,2.5,10.2l0.4,3.6l3.1-1.3
							c-2.9,1.9-6,3.8-8.9,5.6l0.1-3.5l-3.5,1l-3.4,1L25.1-65.7L25.1-65.7z M38-43.1c1.7-1.3,3.4-2.6,5.1-3.9l-0.8,4
							C41.5-43,39.9-43,38-43.1z"/>
					</g>
					<g id="Group_40" transform="translate(159.485 0.975)">
						<path id="Path_57" class="st9" d="M63.5-30.5c-1.9,0.1-3.8-0.6-5-2.1c-3.4-4.2-2.2-14.5,0.9-29.8c0.1-0.3-0.1-0.7-0.5-0.7
							h-0.1H29.3l1.8-8.6H71c-4.6,20.5-6.6,29.7-5.2,31.4c0.2,0.3,0.5,0.4,0.8,0.4c0.6,0,1.4,0,3.5-8.7c1.2,2,2.5,3.9,4.1,5.7
							C71.5-33.6,68.8-30.5,63.5-30.5z M1.5-38.8c4.8-5.4,11.9-14.3,18.4-23.4l6.1,6.4c-5.4,8-11.4,16.1-17.2,23.5L1.5-38.8z
							 M17.3-67.1C14-69.4,10.5-71.6,7-73.7l-0.7-0.4l7-7.6c3.7,1.9,8.7,4.4,11.5,6.2L17.3-67.1z M40-76l1.4-6.5
							c0.1-0.3-0.1-0.6-0.3-0.7c-0.1,0-0.2-0.1-0.3-0.1c-0.2,0-0.3,0.1-0.5,0.2c-1.8,1.9-3.6,3.8-5.6,5.5c-2-2.2-4.2-4.3-6.6-6.2
							C35-89.4,40.8-96.3,45.2-104l8.9,2.5c-0.8,1.3-1.7,2.7-2.6,4.1c-0.2,0.3-0.1,0.7,0.1,0.9c0.1,0.1,0.2,0.1,0.4,0.1h32.3
							l-1.8,8.5H44.8c-0.2,0-0.4,0.1-0.5,0.2c-0.4,0.5-0.8,0.9-1.2,1.4s-0.8,0.9-1.2,1.4c-0.2,0.3-0.2,0.7,0.1,0.9
							c0.1,0.1,0.3,0.2,0.4,0.2h32l-1.7,7.9L40-76z M26-88c-3.3-2.7-6.9-5.2-10.6-7.3l7.3-7.4c3.9,1.9,7.6,4,11.1,6.5L26-88z"/>
						
							<radialGradient id="Path_58_1_" cx="-418.0574" cy="1633.1382" r="48.129" gradientTransform="matrix(0.875 0.101 4.700000e-02 -0.402 285.7156 521.2565)" gradientUnits="userSpaceOnUse">
							<stop  offset="0" style="stop-color:#284F58"/>
							<stop  offset="8.600000e-02" style="stop-color:#1E4651"/>
							<stop  offset="0.297" style="stop-color:#123945"/>
							<stop  offset="0.557" style="stop-color:#0A313E"/>
							<stop  offset="1" style="stop-color:#082F3C"/>
						</radialGradient>
						<path id="Path_58" class="st12" d="M45.2-104l8.9,2.5c-0.8,1.3-1.7,2.7-2.6,4.1c-0.2,0.3-0.1,0.7,0.1,0.9
							c0.1,0.1,0.2,0.1,0.4,0.1h32.3l-1.8,8.5H44.8c-0.2,0-0.4,0.1-0.5,0.2c-0.4,0.5-0.8,0.9-1.2,1.4s-0.8,0.9-1.2,1.4
							c-0.2,0.3-0.2,0.7,0.1,0.9c0.1,0.1,0.3,0.2,0.4,0.2h32l-1.7,7.9H40l1.4-6.5c0.1-0.3-0.1-0.6-0.3-0.7c-0.1,0-0.2-0.1-0.3-0.1
							c-0.2,0-0.3,0.1-0.5,0.2c-1.8,1.9-3.6,3.8-5.6,5.5c-2-2.2-4.2-4.3-6.6-6.2C35-89.4,40.8-96.3,45.2-104 M22.6-102.7
							c3.9,1.9,7.6,4,11.1,6.5L26-87.9c-3.3-2.7-6.9-5.2-10.6-7.3L22.6-102.7 M13.3-81.7c3.7,1.9,8.7,4.4,11.5,6.2l-7.5,8.4
							C14-69.4,10.5-71.6,7-73.7l-0.7-0.4L13.3-81.7 M71.1-71.7c-4.6,20.5-6.6,29.7-5.2,31.4c0.2,0.3,0.5,0.4,0.8,0.4
							c0.6,0,1.4,0,3.5-8.7c1.2,2,2.5,3.9,4.1,5.7c-2.8,9.3-5.5,12.5-10.7,12.5c-1.9,0.1-3.8-0.6-5-2.1c-3.4-4.2-2.2-14.5,0.9-29.8
							c0-0.2,0-0.4-0.1-0.5S59.1-63,58.9-63H29.3l1.8-8.6L71.1-71.7 M19.8-62.2l6.2,6.4c-5.4,8-11.4,16.1-17.2,23.5l-7.3-6.5
							C6.2-44.2,13.4-53,19.8-62.2 M43.9-107.1l-1,1.8c-1.7,2.9-3.5,5.7-5.6,8.4l-1.9-1.5c-3.7-2.5-7.5-4.8-11.5-6.7l-1.7-0.8
							l-1.4,1.4l-7.3,7.4l-2.4,2.4L14-93c3.6,2,7,4.4,10.2,7l1.1,1l-1.5,1.2l2.7,2.1c2.2,1.8,4.3,3.7,6.2,5.8l1.3,1.5h-5l-0.5,2.1
							l-1.8,8.6L26-60.4h30.2c-3,15.4-3.7,24.7,0.2,29.5c1.8,2.1,4.4,3.2,7.1,3c7.5,0,10.7-5.5,13.3-14.4l0.4-1.5l-1-1
							c-1.4-1.6-2.7-3.3-3.7-5.1L70-54.3c1-4.9,2.3-10.8,3.7-16.8l0.5-2.2h0.7l0.4-2.1l1.7-7.9l0.4-2h7.4l0.4-2.1l1.8-8.4l0.7-3.2
							H55.8c0.2-0.3,0.4-0.6,0.6-1l1.8-3l-3.4-1l-8.9-2.5L43.9-107.1L43.9-107.1z M35.1-74.4l1.4-1.2c0.3-0.3,0.6-0.5,0.9-0.8
							l-0.4,2H35.1z M12.7-85l-1.4,1.5l-7,7.6l-2.2,2.4l2.8,1.7l0.7,0.4c3.4,2.1,7.7,4.6,10,6.4l1.8,1.5c-8,11.3-15.8,20.4-18,23
							l-1.7,2l2,1.8l7.4,6.5l2.1,1.9l1.8-2.2c5.9-7.5,11.8-15.6,17.3-23.7l1.2-1.8L28-57.6l-6.2-6.5L19.9-66l6.8-7.7l2.1-2.3
							l-2.6-1.7c-2.9-1.9-7.9-4.5-11.7-6.3L12.7-85L12.7-85z"/>
					</g>
					<g id="Group_41" transform="translate(324.544)">
						<path id="Path_59" class="st9" d="M23.4-30.2l7-33.1c0.1-0.3-0.1-0.7-0.5-0.7h-0.1H17.5c-0.3,0-0.5,0.2-0.6,0.5l-5.6,26.3H1
							l7.8-36.6h23.4c0.3,0,0.5-0.2,0.6-0.5l1.6-7.7c0-0.2,0-0.4-0.1-0.5c-0.1-0.1-0.3-0.2-0.5-0.2H4.6l2.1-10.1h30.1
							c0.3,0,0.6-0.3,0.6-0.6v-0.1c-0.3-1.7-0.8-3.6-1.2-5.3c-0.2-0.6-0.3-1.3-0.4-1.9l11-3.1c1.2,3.8,2.3,7.7,2.9,10.6
							c0.1,0.3,0.3,0.5,0.6,0.5h28l-2.1,9.9H45.7c-0.3,0-0.5,0.2-0.6,0.5l-1.6,7.7c-0.1,0.3,0.1,0.7,0.5,0.7h0.1h24.7l-5.4,25.3
							c-1.2,5.4-3,8.1-6.5,9.7c-3.8,1.6-8.2,1.8-13.5,1.8c0-3.3-0.4-6.7-1.2-9.9c1.6,0.1,4.1,0.2,8,0.2c1.1,0,2.3-0.2,2.6-1.7
							l3.1-14.7c0.1-0.3-0.1-0.7-0.5-0.7h-0.1H41.7c-0.3,0-0.5,0.2-0.6,0.5L34-30.2H23.4z"/>
						
							<radialGradient id="Path_60_1_" cx="-547.9395" cy="1518.5756" r="43.044" gradientTransform="matrix(0.943 0.109 5.000000e-02 -0.433 457.988 549.0576)" gradientUnits="userSpaceOnUse">
							<stop  offset="0" style="stop-color:#284F58"/>
							<stop  offset="8.600000e-02" style="stop-color:#1E4651"/>
							<stop  offset="0.297" style="stop-color:#123945"/>
							<stop  offset="0.557" style="stop-color:#0A313E"/>
							<stop  offset="1" style="stop-color:#082F3C"/>
						</radialGradient>
						<path id="Path_60" class="st13" d="M46.8-103.8c1.2,3.8,2.3,7.7,2.9,10.6c0.1,0.3,0.3,0.5,0.6,0.5h28l-2.1,9.9H45.7
							c-0.3,0-0.5,0.2-0.6,0.5l-1.6,7.7c-0.1,0.3,0.1,0.7,0.5,0.7h0.1h24.7l-5.4,25.3c-1.2,5.4-3,8.1-6.5,9.7
							c-3.8,1.6-8.2,1.8-13.5,1.8c0-3.3-0.4-6.7-1.2-9.9c1.6,0.1,4.1,0.2,8,0.2c1.1,0,2.3-0.2,2.6-1.7l3.1-14.7
							c0.1-0.3-0.1-0.7-0.5-0.7h-0.1H41.7c-0.3,0-0.5,0.2-0.6,0.5L34-30.2H23.4l7-33.1c0.1-0.3-0.1-0.7-0.5-0.7h-0.1H17.5
							c-0.3,0-0.5,0.2-0.6,0.5l-5.6,26.3H1l7.8-36.6h23.4c0.3,0,0.5-0.2,0.6-0.5l1.6-7.7c0-0.2,0-0.4-0.1-0.5
							c-0.1-0.1-0.3-0.2-0.5-0.2H4.6l2.1-10.1h30.1c0.3,0,0.6-0.3,0.6-0.6v-0.1c-0.3-1.7-0.8-3.6-1.2-5.3c-0.2-0.6-0.3-1.3-0.4-1.9
							L46.8-103.8 M48.5-107.1l-2.5,0.7l-11,3.1l-2.4,0.7l0.6,2.5c0.1,0.6,0.3,1.3,0.4,1.9c0.2,0.9,0.4,1.9,0.6,2.8H4.5l-0.4,2.1
							L2-83.4l-0.7,3.2h30l-0.8,3.6H6.6l-0.4,2.1l-7.8,36.7l-0.7,3.2h15.7l0.4-2.1L19-61.3h8.1l-6.3,30.5l-0.7,3.2h16.1l0.5-2.1
							l3.2-15.2c0.5,2.5,0.8,5.1,0.8,7.7l-0.1,2.8h2.8c5.4,0,10.2-0.2,14.6-2c4.4-1.9,6.7-5.3,8.1-11.6l5.4-25.3l0.7-3.2H46.6
							l0.8-3.6h30.9l0.5-2.1l2.1-9.9l0.7-3.2H51.9c-0.7-2.7-1.6-6-2.6-9.2L48.5-107.1L48.5-107.1z M43.4-61.4h9.3l-2.5,11.8h-0.1
							c-4,0-6.5-0.1-7.8-0.2h-1.4L43.4-61.4z"/>
					</g>
					<g id="Group_42" transform="translate(400.355 2.67)">
						<path id="Path_61" class="st9" d="M41.1-32.3c-1.6-2.1-3.6-3.9-5.7-5.4c5.8-3.4,11.8-9.1,16.8-15.8c0.2-0.3,0.1-0.7-0.1-0.9
							c-0.1-0.1-0.2-0.1-0.4-0.1H49c-0.2,0-0.4,0.1-0.5,0.2c-6,7.3-13.2,13.6-21.4,18.5c-1.4-2.1-3.1-4.1-5-5.7
							c6.2-3.1,11.8-7.1,16.7-11.9c0.2-0.2,0.3-0.6,0-0.9c-0.1-0.1-0.3-0.2-0.5-0.2h-2.7c-0.1,0-0.3,0.1-0.4,0.1
							c-2.9,2.4-6,4.6-9.2,6.6c-1.3-1.8-2.8-3.5-4.4-5.1c-0.2-0.2-0.5-0.2-0.7-0.1c-5.7,2.6-12,5.5-18.8,8.5L0.7-54.7
							c2.4-0.8,5.4-1.8,9.3-3.2c0.2-0.1,0.4-0.2,0.4-0.5l4.4-20.7c0.1-0.3-0.1-0.7-0.5-0.7h-0.1H7.8l2-9.5h6.7
							c0.3,0,0.6-0.2,0.6-0.5l3.1-14.6h9.3l-3,14.3c0,0.2,0,0.4,0.1,0.5s0.3,0.2,0.5,0.2h5.8l-2,9.5h-6.1c-0.3,0-0.5,0.2-0.6,0.5
							L20.7-63c-0.1,0.3,0.1,0.7,0.5,0.7h0.1c0.1,0,0.2,0,0.2,0l4.9-1.9l0.2,6c0,0.2,0.1,0.4,0.4,0.5c0.1,0,0.2,0.1,0.3,0.1
							c0.1,0,0.3,0,0.4-0.1c3-2.1,5.7-4.6,8.1-7.3c0.2-0.3,0.2-0.7-0.1-0.9c-0.1-0.1-0.3-0.2-0.4-0.2h-6.9l1.8-8.2h48.6L77-66.1
							H46.6c-0.2,0-0.4,0.1-0.5,0.3C45.5-65,44.8-64,44-63.1c-0.2,0.3-0.2,0.7,0.1,0.9c0.1,0.1,0.3,0.1,0.4,0.1h30.3
							c-0.2,0.8-0.6,2.2-0.8,2.9c-4,14.3-6.7,21.1-9.3,23.4c-1.6,1.6-3.7,2.6-5.9,2.8c-1.9,0.3-3.9,0.4-5.8,0.3c-0.5,0-1,0-1.5,0
							c0.3-2.4,0.2-4.8-0.4-7.2c-0.1-0.2-0.2-0.4-0.5-0.4c0,0-0.1,0-0.2,0c-0.2,0-0.3,0.1-0.5,0.2C47.3-37.1,44.3-34.5,41.1-32.3z
							 M61.3-54.5c-0.2,0-0.4,0.1-0.5,0.3c-2.9,4.7-6.2,9-9.9,13.1c-0.2,0.3-0.2,0.6,0,0.9c0.1,0.1,0.2,0.2,0.4,0.2
							c1.6,0.1,2.8,0.1,3.6,0.1c1.1,0.1,2.2-0.3,2.9-1.1c0.9-0.7,2.4-2.9,5.3-12.6c0.1-0.3-0.1-0.7-0.4-0.8c-0.1,0-0.1,0-0.2,0
							L61.3-54.5z M37.4-77.8l5.5-26h36.8l-5.5,26H37.4z M48.8-87.8c-0.3,0-0.6,0.2-0.6,0.5l-0.5,2.4c-0.1,0.3,0.1,0.7,0.5,0.7h0.1
							h17.5c0.3,0,0.5-0.2,0.6-0.5l0.5-2.4c0.1-0.3-0.1-0.7-0.5-0.7h-0.1H48.8z M50.8-97.4c-0.3,0-0.6,0.2-0.6,0.5l-0.5,2.4
							c-0.1,0.3,0.1,0.7,0.5,0.7h0.1h17.5c0.3,0,0.5-0.2,0.6-0.5l0.5-2.4c0.1-0.3-0.1-0.7-0.5-0.7h-0.1H50.8z"/>
						
							<radialGradient id="Path_62_1_" cx="-714.1613" cy="1563.4584" r="44.523" gradientTransform="matrix(0.914 0.106 4.900000e-02 -0.42 576.8101 565.5635)" gradientUnits="userSpaceOnUse">
							<stop  offset="0" style="stop-color:#284F58"/>
							<stop  offset="8.600000e-02" style="stop-color:#1E4651"/>
							<stop  offset="0.297" style="stop-color:#123945"/>
							<stop  offset="0.557" style="stop-color:#0A313E"/>
							<stop  offset="1" style="stop-color:#082F3C"/>
						</radialGradient>
						<path id="Path_62" class="st14" d="M29.5-104.5l-3,14.3c0,0.2,0,0.4,0.1,0.5s0.3,0.2,0.5,0.2h5.8l-2,9.5h-6.1
							c-0.3,0-0.5,0.2-0.6,0.5l-3.5,16.4c-0.1,0.3,0.1,0.7,0.5,0.7h0.1c0.1,0,0.2,0,0.2,0l4.9-1.9l0.2,6c0,0.2,0.1,0.4,0.4,0.5
							c0.1,0,0.2,0.1,0.3,0.1c0.1,0,0.3,0,0.4-0.1c3-2.1,5.7-4.6,8.1-7.3c0.2-0.3,0.2-0.7-0.1-0.9c-0.1-0.1-0.3-0.2-0.4-0.2h-6.9
							l1.8-8.2h48.6L77-66.1H46.6c-0.2,0-0.4,0.1-0.5,0.3C45.5-65,44.8-64,44-63.1c-0.2,0.3-0.2,0.7,0.1,0.9
							c0.1,0.1,0.3,0.1,0.4,0.1h30.3c-0.2,0.8-0.6,2.2-0.8,2.9c-4,14.3-6.7,21.1-9.3,23.4c-1.6,1.6-3.7,2.6-5.9,2.8
							c-1.9,0.3-3.9,0.4-5.8,0.3c-0.5,0-1,0-1.5,0c0.3-2.4,0.2-4.8-0.4-7.2c-0.1-0.2-0.2-0.4-0.5-0.4c0,0-0.1,0-0.2,0
							c-0.2,0-0.3,0.1-0.5,0.2c-2.6,2.9-5.6,5.5-8.8,7.7c-1.6-2.1-3.6-3.9-5.7-5.4c5.8-3.4,11.8-9.1,16.8-15.8
							c0.2-0.3,0.1-0.7-0.1-0.9c-0.1-0.1-0.2-0.1-0.4-0.1H49c-0.2,0-0.4,0.1-0.5,0.2c-6,7.3-13.2,13.6-21.4,18.5
							c-1.4-2.1-3.1-4.1-5-5.7c6.2-3.1,11.8-7.1,16.7-11.9c0.2-0.2,0.3-0.6,0-0.9c-0.1-0.1-0.3-0.2-0.5-0.2h-2.7
							c-0.1,0-0.3,0.1-0.4,0.1c-2.9,2.4-6,4.6-9.2,6.6c-1.3-1.8-2.8-3.5-4.4-5.1c-0.2-0.2-0.5-0.2-0.7-0.1c-5.7,2.6-12,5.5-18.8,8.5
							L0.7-54.8c2.4-0.8,5.4-1.8,9.3-3.2c0.2-0.1,0.4-0.2,0.4-0.5l4.4-20.7c0.1-0.3-0.1-0.7-0.5-0.7h-0.1H7.8l2-9.5h6.7
							c0.3,0,0.6-0.2,0.6-0.5l3.1-14.6L29.5-104.5 M55-40c1.1,0.1,2.2-0.3,2.9-1.1c0.9-0.7,2.4-2.9,5.3-12.6
							c0.1-0.3-0.1-0.7-0.4-0.8c-0.1,0-0.1,0-0.2,0h-1.3c-0.2,0-0.4,0.1-0.5,0.3c-2.9,4.7-6.2,9-9.9,13.1c-0.2,0.3-0.2,0.6,0,0.9
							c0.1,0.1,0.2,0.2,0.4,0.2C52.9-40,54.2-40,55-40 M79.7-103.8l-5.5,26H37.4l5.5-26H79.7 M50.3-93.8h17.5c0.3,0,0.5-0.2,0.6-0.5
							l0.5-2.4c0.1-0.3-0.1-0.7-0.5-0.7h-0.1H50.8c-0.3,0-0.6,0.2-0.6,0.5l-0.5,2.4C49.6-94.2,49.8-93.8,50.3-93.8
							C50.2-93.8,50.3-93.8,50.3-93.8 M48.3-84.2h17.5c0.3,0,0.5-0.2,0.6-0.5l0.5-2.4c0.1-0.3-0.1-0.7-0.5-0.7h-0.1H48.8
							c-0.3,0-0.5,0.2-0.6,0.5l-0.5,2.4C47.6-84.6,47.8-84.2,48.3-84.2C48.2-84.2,48.2-84.2,48.3-84.2 M32.8-107.1H18l-0.5,2.1
							l-2.8,12.9H7.6L7.1-90l-2,9.5l-0.7,3.2h7.2L8-60.1c-3.4,1.2-6,2.1-8.2,2.8l-2.2,0.7l0.3,2.2l1.5,10.2l0.5,3.5l3.2-1.4
							c6.3-2.8,12.1-5.4,17.5-7.9c1.1,1.2,2.2,2.5,3.1,3.8l0.4,0.5c-1.1,0.7-2.2,1.2-3.3,1.8L17-42.1l3.3,2.7c1.7,1.4,3.2,3.1,4.5,5
							l1.4,2.2l2.2-1.3c1.4-0.8,2.9-1.7,4.4-2.8l1.1,0.8c1.9,1.4,3.6,3,5.1,4.8l1.5,2l2.1-1.4c2.2-1.5,4.2-3.2,6.1-5.1
							c0,0.7,0,1.5-0.1,2.2l-0.3,2.9l2.9,0.1c0.5,0,1.1,0,1.6,0c2.1,0,4.2-0.1,6.2-0.4c2.8-0.3,5.4-1.6,7.4-3.5
							c3-2.8,5.7-9.4,10-24.6c0.2-0.7,0.5-1.7,0.9-3.1l0.5-2h1.4l0.4-2.1l1.8-8.2l0.7-3.2h-5.3v-0.2l5.5-26.1l0.7-3.1H40.7l-0.5,2.1
							l-5.5,26.1L34.4-77H28l-0.4,2.1l-1.7,8.1l-0.4,0.1l-1.4,0.5l2.4-11.1h6.6l0.5-2.1l2-9.5l0.7-3.2h-6.6l2.5-11.8L32.8-107.1
							L32.8-107.1z M29.2-63.4h1.3c-0.4,0.4-0.8,0.7-1.2,1.1L29.2-63.4z"/>
					</g>
					<g id="Group_43" transform="translate(560.154 1.493)">
						<path id="Path_63" class="st9" d="M8-31.2L13.5-57c0.1-0.3-0.1-0.6-0.4-0.7c-0.1,0-0.1,0-0.2,0c-0.2,0-0.4,0.1-0.5,0.3
							C9.8-53,6.8-48.8,3.5-44.9C2.9-48,2-51.1,0.8-54.1C6.4-59.8,12.5-69,16.7-78.2c0.1-0.3,0-0.7-0.3-0.8c-0.1,0-0.2-0.1-0.3-0.1
							H8.3l2-9.5h9.4c0.3,0,0.5-0.2,0.6-0.5l3.3-15.4h9.6L30-89.4c0,0.2,0,0.4,0.1,0.5c0.1,0.1,0.3,0.2,0.5,0.2h9.6l-2,9.5h-9.9
							c-0.3,0-0.5,0.2-0.6,0.5l-0.5,2.3c0,0.2,0,0.3,0.1,0.5c2.1,3.5,5.9,10.8,7,13.3l-7.2,7.8c-0.5-2.1-1.2-4.5-1.9-6.7
							c-0.1-0.3-0.3-0.4-0.6-0.4l0,0c-0.3,0-0.5,0.2-0.6,0.5l-6.4,30.3L8-31.2z M50.8-31.2l7.8-36.7c0.1-0.3-0.1-0.7-0.5-0.7H58
							h-8.2c-0.3,0-0.5,0.2-0.6,0.5c-2.7,11.2-7.8,26.5-16.4,36.5c-2.2-1.9-4.6-3.6-7.2-5c8.7-10,12.7-24.2,15.3-36.9l4.8-22.3
							c10.2-1.9,20.2-4.8,26.9-7.7l6.8,8c-8.2,3-16.7,5.2-25.3,6.7c-0.2,0-0.4,0.2-0.5,0.5l-2,9.4c-0.1,0.3,0.1,0.7,0.5,0.7h0.1h28
							l-2,9.5h-8.8c-0.3,0-0.5,0.2-0.6,0.5l-7.9,36.9L50.8-31.2z"/>
						
							<radialGradient id="Path_64_1_" cx="-955.696" cy="1563.7371" r="44.948" gradientTransform="matrix(0.915 0.106 4.900000e-02 -0.42 793.0068 600.512)" gradientUnits="userSpaceOnUse">
							<stop  offset="0" style="stop-color:#284F58"/>
							<stop  offset="8.600000e-02" style="stop-color:#1E4651"/>
							<stop  offset="0.297" style="stop-color:#123945"/>
							<stop  offset="0.557" style="stop-color:#0A313E"/>
							<stop  offset="1" style="stop-color:#082F3C"/>
						</radialGradient>
						<path id="Path_64" class="st15" d="M33.2-104.5L30-89.4c0,0.2,0,0.4,0.1,0.5c0.1,0.1,0.3,0.2,0.5,0.2h9.6l-2,9.5h-9.9
							c-0.3,0-0.5,0.2-0.6,0.5l-0.5,2.3c0,0.2,0,0.3,0.1,0.5c2.1,3.5,5.9,10.8,7,13.3l-7.2,7.8c-0.5-2.1-1.2-4.5-1.9-6.7
							c-0.1-0.3-0.3-0.4-0.6-0.4l0,0c-0.3,0-0.5,0.2-0.6,0.5l-6.4,30.3H8l5.5-25.8c0.1-0.3-0.1-0.6-0.4-0.7c-0.1,0-0.1,0-0.2,0
							c-0.2,0-0.4,0.1-0.5,0.3C9.8-53,6.8-48.8,3.5-44.9C2.9-48,2-51.1,0.8-54.1C6.4-59.8,12.5-69,16.7-78.2c0.1-0.3,0-0.7-0.3-0.8
							c-0.1,0-0.2-0.1-0.3-0.1H8.3l2-9.5h9.4c0.3,0,0.5-0.2,0.6-0.5l3.3-15.4H33.2 M72.5-103.5l6.8,8c-8.2,3-16.7,5.2-25.3,6.7
							c-0.2,0-0.4,0.2-0.5,0.5l-2,9.4c-0.1,0.3,0.1,0.7,0.5,0.7h0.1h28l-2,9.5h-8.8c-0.3,0-0.5,0.2-0.6,0.5l-7.9,36.9h-10L58.6-68
							c0.1-0.3-0.1-0.7-0.5-0.7H58h-8.2c-0.3,0-0.5,0.2-0.6,0.5C46.5-57,41.4-41.7,32.8-31.7c-2.2-1.9-4.6-3.6-7.2-5
							c8.7-10,12.7-24.2,15.3-36.8l4.8-22.3C55.9-97.7,65.9-100.6,72.5-103.5 M36.5-107.1H21.4l-0.5,2.1L18-91.3H8.1l-0.4,2.1
							l-2,9.5L5-76.4h7.9c-4,7.9-9.2,15.6-14,20.5l-1.2,1.2l0.6,1.6c1.1,2.8,1.9,5.7,2.5,8.7l0.9,5.5L5.4-43c1-1.1,2.1-2.4,3.1-3.8
							L5.4-31.7l-0.7,3.2h15.1l0.5-2.1l1.1-5.1l3.1,1.5c2.4,1.2,4.6,2.8,6.6,4.5l2,1.9l1.8-2.1c8.5-9.9,13.7-24.8,16.6-36.1h4
							l-7.3,34.2l-0.7,3.2H63l0.5-2.1L71-66h9.3l0.5-2.1l2-9.5l0.7-3.2H54.7l1.2-5.6c8.3-1.5,16.5-3.7,24.4-6.6l3.5-1.3l-2.5-2.9
							l-6.8-8l-1.2-1.6l-1.8,0.8c-6.5,2.9-16.3,5.7-26.3,7.5l-1.8,0.3L43-96.4l-1,5.1h-8.8l2.7-12.6L36.5-107.1L36.5-107.1z
							 M30.1-76.4h8.7L38.3-74c-0.6,3-1.3,6-2.2,9.1C34.7-67.8,32-73.1,30.1-76.4L30.1-76.4z M25.7-49.3l3.4-3.7l5.2-5.6
							c-2.4,7.4-5.8,14.6-10.7,20.2l-2.3,2.6l3.6-16.7L25.7-49.3L25.7-49.3z"/>
					</g>
					<g id="Group_46" transform="translate(239.121 1.493)">
						<g id="Group_44" transform="translate(0 51.693)">
							<path id="Path_65" class="st9" d="M28.6-82.9l2-9.2c0.1-0.3-0.1-0.7-0.5-0.7H30H1l1.9-9h29.2c0.3,0,0.5-0.2,0.6-0.5l0.4-2.1
								h10.6l-0.4,1.9c-0.1,0.3,0.1,0.7,0.5,0.7h0.1H74l-1.9,9H41.8c-0.3,0-0.5,0.2-0.6,0.5l-2,9.5L28.6-82.9z"/>
							
								<radialGradient id="Path_66_1_" cx="-3301.7766" cy="4188.2373" r="87.934" gradientTransform="matrix(0.336 3.900000e-02 1.800000e-02 -0.154 777.3727 544.39)" gradientUnits="userSpaceOnUse">
								<stop  offset="0" style="stop-color:#284F58"/>
								<stop  offset="8.600000e-02" style="stop-color:#1E4651"/>
								<stop  offset="0.297" style="stop-color:#123945"/>
								<stop  offset="0.557" style="stop-color:#0A313E"/>
								<stop  offset="1" style="stop-color:#082F3C"/>
							</radialGradient>
							<path id="Path_66" class="st16" d="M43.8-104.5l-0.4,1.9c-0.1,0.3,0.1,0.7,0.5,0.7H44h30.1l-1.9,9H41.8
								c-0.3,0-0.5,0.2-0.6,0.5l-2,9.5H28.6l2-9.2c0.1-0.3-0.1-0.7-0.5-0.7H30H1l1.9-9h29.2c0.3,0,0.5-0.2,0.6-0.5l0.4-2.1
								L43.8-104.5 M47.1-107.1h-16l-0.4,2.1l-0.1,0.5H0.8l-0.5,2.1l-1.9,9l-0.7,3.2h29.7L26-83.4l-0.7,3.2h16l0.4-2.1l1.7-7.8h30.8
								l0.5-2.1l1.9-9l0.7-3.2H46.5L47.1-107.1L47.1-107.1z"/>
						</g>
						<g id="Group_45" transform="translate(11.906)">
							<path id="Path_67" class="st9" d="M28.8-87.9l0.2-0.7c0.1-0.3-0.1-0.7-0.5-0.7h-0.1H1l1.9-9h27.6c0.3,0,0.5-0.2,0.6-0.5
								l1.2-5.5h10.6L41.8-99c-0.1,0.3,0.1,0.7,0.5,0.7h0.1h27.9l-1.9,9H40.2c-0.3,0-0.5,0.2-0.6,0.5l-0.2,1L28.8-87.9L28.8-87.9z"
								/>
							
								<radialGradient id="Path_68_1_" cx="-4079.5703" cy="4866.5127" r="96.562" gradientTransform="matrix(0.287 3.300000e-02 1.500000e-02 -0.132 812.587 573.3157)" gradientUnits="userSpaceOnUse">
								<stop  offset="0" style="stop-color:#284F58"/>
								<stop  offset="8.600000e-02" style="stop-color:#1E4651"/>
								<stop  offset="0.297" style="stop-color:#123945"/>
								<stop  offset="0.557" style="stop-color:#0A313E"/>
								<stop  offset="1" style="stop-color:#082F3C"/>
							</radialGradient>
							<path id="Path_68" class="st17" d="M42.9-104.5l-1.1,5.3c-0.1,0.3,0.1,0.7,0.5,0.7h0.1h27.9l-1.9,9H40.2
								c-0.3,0-0.5,0.2-0.6,0.5l-0.2,1H28.8l0.2-0.7c0.1-0.3-0.1-0.7-0.5-0.7h-0.1H1l1.9-9h27.6c0.3,0,0.5-0.2,0.6-0.5l1.2-5.5
								L42.9-104.5 M46.2-107.1h-16l-0.4,2.1l-0.8,3.9H0.8L0.3-99l-1.9,9l-0.7,3.2h28.1l-0.3,1.5h16l0.3-1.5h28.6l0.5-2.1l1.9-9
								l0.7-3.2H44.9l0.6-2.8L46.2-107.1L46.2-107.1z"/>
						</g>
					</g>
					<g id="Group_47" transform="translate(475.838 1.089)">
						<path id="Path_69" class="st9" d="M24.1-30.8c0.1-2.8-0.3-5.6-0.9-8.3c2.3,0.1,4.7,0.1,5.5,0.1c1,0.1,2-0.7,2.1-1.7l0,0
							l2.1-9.8c0.1-0.3-0.1-0.7-0.5-0.7h-0.1h-14c-0.3,0-0.5,0.2-0.6,0.4c-2.9,8.8-6.2,15.3-10.1,20c-1.8-1.6-3.7-3.1-5.8-4.3
							c6.4-7.7,9.3-18.1,11.5-28.3l2.6-12.2c0-0.2,0-0.4-0.2-0.6c-1.5-1.6-3-3.2-4.7-4.6c5.9-5.4,11.6-13.7,15.8-23.2l8.3,1.9
							c-0.7,1.5-1.5,3.1-2.3,4.6c-0.2,0.3-0.1,0.7,0.2,0.9c0.1,0.1,0.2,0.1,0.3,0.1h5.9l1.4-0.3l4.9,3.4c-1.7,3-3.9,6.3-5.7,8.8
							c-0.2,0.3-0.1,0.7,0.2,0.9c0.1,0.1,0.2,0.1,0.4,0.1h7.5l-0.7,3.2c-0.1,0.3,0.1,0.7,0.5,0.7h0.1c0.1,0,0.2,0,0.3-0.1
							c5.1-2.1,9-6.2,10.9-11.4c0.1-0.3,0-0.7-0.3-0.8c-0.1,0-0.2,0-0.2,0h-7l1.7-8h34.2c-0.2,0.8-0.5,1.9-0.7,2.7
							c-3,12.7-4.8,17.9-6.8,19.9c-1.2,1.2-2.7,2.1-4.4,2.5h-8c0.2-2.4,0.1-4.9-0.5-7.2c1.9,0.2,3.2,0.2,3.8,0.2c1,0.1,2-0.3,2.7-1
							c0.6-0.6,1.4-2,3-8.2c0.1-0.3-0.1-0.7-0.4-0.8c-0.1,0-0.1,0-0.2,0h-7.2c-0.3,0-0.5,0.2-0.6,0.4c-2.9,7.9-6.7,12.9-12.7,16.6
							h-5.9c-0.5-1.1-1-2.1-1.7-3c-0.1-0.2-0.3-0.3-0.5-0.3h-0.1c-0.2,0-0.4,0.2-0.5,0.5L43-61.2l-0.2,1L42-56.4v0.1l-3.3,15.5
							c-1,4.5-2.3,6.8-4.8,8.2C31.2-31.2,28.4-30.9,24.1-30.8z M32-64.5c-0.3,0-0.5,0.2-0.6,0.5l-1.1,4.9c-0.1,0.3,0.1,0.7,0.5,0.7
							h0.1h3c0.3,0,0.5-0.2,0.6-0.5l1.1-4.9c0.1-0.3-0.1-0.7-0.5-0.7H35H32z M21.7-64.5c-0.3,0-0.6,0.2-0.6,0.5L21-63.7
							c-0.3,1.5-0.6,3-1.1,4.6c-0.1,0.3,0.1,0.7,0.4,0.8c0,0,0.1,0,0.2,0h3c0.3,0,0.5-0.2,0.6-0.5l1.1-4.9c0.1-0.3-0.1-0.7-0.5-0.7
							h-0.1L21.7-64.5z M34.6-76.7c-0.3,0-0.5,0.2-0.6,0.5l-0.9,4.3c-0.1,0.3,0.1,0.7,0.5,0.7h0.1h3c0.3,0,0.5-0.2,0.6-0.5l0.9-4.3
							c0-0.2,0-0.4-0.1-0.5s-0.3-0.2-0.5-0.2H34.6z M24.3-76.7c-0.3,0-0.5,0.2-0.6,0.5l-0.9,4.3c-0.1,0.3,0.1,0.7,0.5,0.7h0.1h2.9
							c0.3,0,0.5-0.2,0.6-0.5l0.9-4.3c0.1-0.3-0.1-0.7-0.5-0.7h-0.1H24.3z M28.3-89.4c-0.2,0-0.4,0.1-0.5,0.3
							c-0.4,0.6-0.8,1.2-1.2,1.8c-0.6,0.9-1.2,1.8-1.8,2.6c-0.2,0.3-0.1,0.7,0.1,0.9c0.1,0.1,0.2,0.1,0.4,0.1h5.5
							c0.2,0,0.4-0.1,0.5-0.3c1-1.6,1.9-3.3,2.5-4.4c0.2-0.3,0-0.7-0.3-0.8c-0.1,0-0.2-0.1-0.3-0.1L28.3-89.4z"/>
						
							<radialGradient id="Path_70_1_" cx="-935.0504" cy="1665.6075" r="50.312" gradientTransform="matrix(0.857 9.900000e-02 4.600000e-02 -0.394 693.9479 586.5698)" gradientUnits="userSpaceOnUse">
							<stop  offset="0" style="stop-color:#284F58"/>
							<stop  offset="8.600000e-02" style="stop-color:#1E4651"/>
							<stop  offset="0.297" style="stop-color:#123945"/>
							<stop  offset="0.557" style="stop-color:#0A313E"/>
							<stop  offset="1" style="stop-color:#082F3C"/>
						</radialGradient>
						<path id="Path_70" class="st18" d="M26.8-104l8.3,1.9c-0.7,1.5-1.5,3.1-2.3,4.6c-0.2,0.3-0.1,0.7,0.2,0.9
							c0.1,0.1,0.2,0.1,0.3,0.1h5.9l1.4-0.3l4.9,3.4c-1.7,3-3.9,6.3-5.7,8.8c-0.2,0.3-0.1,0.7,0.2,0.9c0.1,0.1,0.2,0.1,0.4,0.1h7.5
							l-0.7,3.2c-0.1,0.3,0.1,0.7,0.5,0.7h0.1c0.1,0,0.2,0,0.3-0.1c5.1-2.1,9-6.2,10.9-11.4c0.1-0.3,0-0.7-0.3-0.8
							c-0.1,0-0.2,0-0.2,0h-7l1.7-8h34.2c-0.2,0.8-0.5,1.9-0.7,2.7c-3,12.7-4.8,17.9-6.8,19.9c-1.2,1.2-2.7,2.1-4.4,2.5h-8
							c0.2-2.4,0.1-4.9-0.5-7.2c1.9,0.2,3.2,0.2,3.8,0.2c1,0.1,2-0.3,2.7-1c0.6-0.6,1.4-2,3-8.2c0.1-0.3-0.1-0.7-0.4-0.8
							c-0.1,0-0.1,0-0.2,0h-7.2c-0.3,0-0.5,0.2-0.6,0.4c-2.9,7.9-6.7,12.9-12.7,16.6h-5.9c-0.5-1.1-1-2.1-1.7-3
							c-0.1-0.2-0.3-0.3-0.5-0.3h-0.1c-0.2,0-0.4,0.2-0.5,0.5L43-61.2l-0.2,1L42-56.4v0.1l-3.3,15.5c-1,4.5-2.3,6.8-4.8,8.2
							c-2.6,1.4-5.5,1.7-9.8,1.7c0.1-2.8-0.3-5.6-0.9-8.3c2.3,0.1,4.7,0.1,5.5,0.1c1,0.1,2-0.7,2.1-1.7l0,0l2.1-9.8
							c0.1-0.3-0.1-0.7-0.5-0.7h-0.1h-14c-0.3,0-0.5,0.2-0.6,0.4c-2.9,8.8-6.2,15.3-10.1,20c-1.8-1.6-3.7-3.1-5.8-4.3
							c6.4-7.7,9.3-18.1,11.5-28.3l2.6-12.2c0-0.2,0-0.4-0.2-0.6c-1.5-1.6-3-3.2-4.7-4.6C16.9-86.2,22.6-94.6,26.8-104 M25.4-83.7
							h5.5c0.2,0,0.4-0.1,0.5-0.3c1-1.6,1.9-3.3,2.5-4.4c0.2-0.3,0-0.7-0.3-0.8c-0.1,0-0.2-0.1-0.3-0.1h-5c-0.2,0-0.4,0.1-0.5,0.3
							c-0.4,0.6-0.8,1.2-1.2,1.8c-0.6,0.9-1.2,1.8-1.8,2.6c-0.2,0.3-0.1,0.7,0.1,0.9C25.1-83.8,25.2-83.7,25.4-83.7 M33.7-71.2h3
							c0.3,0,0.5-0.2,0.6-0.5l0.9-4.3c0-0.2,0-0.4-0.1-0.5s-0.3-0.2-0.5-0.2h-3c-0.3,0-0.5,0.2-0.6,0.5l-0.9,4.3
							C33-71.6,33.2-71.2,33.7-71.2C33.6-71.2,33.6-71.2,33.7-71.2 M23.4-71.2h2.9c0.3,0,0.5-0.2,0.6-0.5l0.9-4.3
							c0.1-0.3-0.1-0.7-0.5-0.7h-0.1h-2.9c-0.3,0-0.5,0.2-0.6,0.5l-0.9,4.3c-0.1,0.3,0.1,0.7,0.5,0.7H23.4 M30.9-58.3h3
							c0.3,0,0.5-0.2,0.6-0.5l1.1-4.9c0.1-0.3-0.1-0.7-0.5-0.7H35h-3c-0.3,0-0.5,0.2-0.6,0.5L30.3-59c-0.1,0.3,0.1,0.7,0.5,0.7
							C30.9-58.3,30.9-58.3,30.9-58.3 M20.6-58.3h3c0.3,0,0.5-0.2,0.6-0.5l1.1-4.9c0.1-0.3-0.1-0.7-0.5-0.7h-0.1h-2.9
							c-0.3,0-0.6,0.2-0.6,0.5L21-63.7c-0.3,1.5-0.6,3-1.1,4.6c-0.1,0.3,0.1,0.7,0.4,0.8C20.5-58.3,20.5-58.3,20.6-58.3 M25.2-107.1
							l-0.9,2c-4,9.1-9.5,17.2-15.1,22.3l-2.3,2l2.4,2c1.3,1.1,2.5,2.3,3.7,3.6l-2.4,11.1c-2,9.9-4.8,20-10.9,27.2l-2,2.5l2.8,1.6
							c1.9,1.1,3.6,2.4,5.2,3.9l2.1,2l1.8-2.2c3.9-4.7,7.3-11.1,10.1-19.5h9.9l-1.5,7c-1.1,0-3,0-4.9-0.1l-3.6-0.2l0.9,3.5
							c0.6,2.4,0.9,5,0.8,7.5l-0.1,2.8H24c4.4,0,7.8-0.4,11-2c3.3-1.8,5.1-4.7,6.2-10l3.3-15.3v-0.1l0.1-0.3l0.8-3.8l0.2-0.9
							l2.5-11.8H56l0.6-0.4c3-1.8,5.7-4.2,7.9-7c0.2,1.5,0.2,3,0,4.4l-0.3,2.9h2.9h8h0.3l0.3-0.1c2.2-0.5,4.1-1.6,5.7-3.2
							c2.4-2.5,4.3-7.6,7.5-21.2c0.2-0.7,0.5-1.8,0.7-2.6l0.8-3.3H50.9l-0.5,2.1l-1.7,8L48-89.4h7c-1.1,1.9-2.6,3.6-4.4,5l0.4-2h-7
							c1.2-1.9,2.5-3.8,3.6-5.8l1.2-2.1l-2-1.4l-4.9-3.4l-1-0.7l-1.2,0.3l-1.1,0.3h-2.2c0.6-0.6,0.8-1.2,1.1-1.8l1.4-3l-3.2-0.7
							l-8.3-1.9L25.2-107.1L25.2-107.1z M70-89.4h3.1c-1,3.6-1.5,4.3-1.6,4.4c-0.2,0.2-0.3,0.3-0.8,0.3s-1.4,0-2.8-0.1
							C68.7-86.3,69.4-87.8,70-89.4L70-89.4z M29.4-86.7h0.4c-0.1,0.1-0.1,0.2-0.2,0.3h-0.5L29.4-86.7L29.4-86.7z"/>
					</g>
				</g>
			</g>
			<g id="Group_50" transform="translate(526.456 35.504)">
				<g id="Facebook_Places" transform="translate(-583.082 -124.32)">
					<path class="st9" d="M589.1,61.3l-1-2.4c-0.3-0.7-0.5-1.3-0.8-2c-1.5-3.6-3-7.3-4.4-11c-0.3-0.8-0.6-1.6-1-2.5
						c-1.4-3.5-2.9-7.1-2.6-10.7l0,0l0,0c0-0.4,0.2-1.1,0.2-1.2l0,0l0,0l0.4-1.8v-0.1v-0.1c1.4-4.3,4-7.9,7.6-10.4
						c3.2-2.2,6.9-3.4,10.5-3.4c2.8,0,5.6,0.8,7.7,2.2c2.6,1.7,4.3,4.3,5,7.6c0,0.1,0.1,0.2,0.1,0.3c0.1,0.4,0.2,0.9,0.3,1.5l0,0
						c0.2,1.9,0.2,2.5,0.1,2.8l-0.4,1.9c-0.8,3.8-3.9,7.5-6.9,11c-1.1,1.3-2.2,2.6-3.1,3.8c-0.3,0.3-0.6,0.6-0.9,0.9
						c-0.2,0.2-0.4,0.4-0.6,0.6c-0.3,0.3-0.5,0.7-0.8,1c-0.4,0.4-0.7,0.9-1.1,1.4l0,0l0,0c-1.2,1.5-2.5,3.1-3.7,4.7
						c-1,1.2-2,2.5-3,3.8L589.1,61.3z M591.5,32.6c0.3,1.4,1.1,2.1,2.6,2.1c2.2,0,4.5-1.9,5-4.1c0.2-1,0-1.9-0.5-2.5
						s-1.2-0.9-2.1-0.9c-1.6,0-4.1,0.9-4.6,3.5l-0.2,1.1l0,0C591.5,32.3,591.5,32.5,591.5,32.6z"/>
					<path class="st19" d="M598,17.2c-6.2,0-13.9,4.2-16.7,12.8l-0.4,1.8c0,0.1-0.1,0.7-0.2,1.1c-0.4,4.1,1.9,8.4,3.5,12.5
						c1.7,4.4,3.4,8.7,5.2,13c2.2-2.8,4.5-5.7,6.7-8.4c0.6-0.8,1.3-1.6,1.9-2.4c0.4-0.5,1.1-1,1.4-1.5c3.6-4.8,8.8-9.5,9.8-14.3
						l0.4-1.9c0.1-0.5-0.1-2.3-0.2-2.4c0-0.5-0.2-1.1-0.3-1.6C608,19.5,602.7,17.2,598,17.2 M594.1,36.2c-1.8,0-3.6-0.9-4.1-3.4
						c-0.1-0.4,0.1-1.2,0.1-1.3l0.2-1.1c0.7-3.2,3.7-4.7,6.1-4.7c2.9,0,4.7,2.3,4.1,5.3C600,33.9,597,36.2,594.1,36.2 M598,14.2
						c2.2,0,5.5,0.4,8.5,2.4c2.9,1.9,4.9,4.9,5.6,8.5c0,0.1,0,0.2,0.1,0.3c0.1,0.5,0.2,1,0.3,1.7c0.3,2,0.2,2.7,0.1,3.3l0,0
						l-0.4,1.9c-0.9,4.2-4.1,8-7.3,11.7c-1.1,1.3-2.2,2.5-3.1,3.8c-0.3,0.4-0.7,0.8-1,1.1c-0.1,0.1-0.4,0.3-0.4,0.4
						c-0.3,0.3-0.5,0.7-0.8,1c-0.4,0.4-0.7,0.9-1,1.3l0,0l0,0c-1.2,1.5-2.5,3.1-3.7,4.6c-1,1.2-2,2.5-3,3.8l-3.2,4l-1.9-4.8
						c-0.3-0.7-0.5-1.3-0.8-2c-1.5-3.6-3-7.3-4.4-11.1c-0.3-0.8-0.6-1.6-1-2.5c-1.4-3.5-3-7.4-2.7-11.4l0,0l0,0
						c0-0.4,0.2-1.2,0.2-1.3l0,0l0,0l0.4-1.8V29v-0.1c1.5-4.6,4.3-8.5,8.2-11.2C590.1,15.5,594.2,14.2,598,14.2z M594.1,33.2
						c1.5,0,3.2-1.4,3.5-2.9c0.1-0.5,0.1-1-0.2-1.3c-0.2-0.3-0.7-0.3-1-0.3c-0.7,0-2.8,0.4-3.2,2.3l-0.2,1.1l0,0
						c0,0.1-0.1,0.3-0.1,0.3C593.2,33,593.4,33.2,594.1,33.2z"/>
				</g>
			</g>
			<g id="Group_53" transform="translate(258.14 11.844)">
				<g id="Group_52">
					<g id="steering_wheel">
						<g id="Group_51">
							<path id="Path_71" class="st9" d="M18.7-58.1C13.3-58,8.1-60.3,4.6-64.5C0.9-69-0.4-75,0.9-81.4
								c2.4-12.7,14.4-23.1,26.6-23.1c5.4-0.1,10.6,2.2,14.1,6.4c3.7,4.5,5,10.5,3.7,16.9C42.9-68.4,30.9-58.1,18.7-58.1z M7.4-80.6
								c-0.7,3.6,0,7.3,2,10.3c1.7,2.5,4.3,4.2,7.2,4.9c0.7-4.7-0.2-9.1-2.7-11.9C12.4-79.3,10-80.5,7.4-80.6L7.4-80.6z M38.6-80.6
								c-6.5,0.5-13.1,7-15.2,15.2C30.9-67.3,36.7-73.2,38.6-80.6z M23.7-83.5c-1.3,0.1-2.4,1-2.6,2.3c-0.1,0.5,0,1.1,0.3,1.5
								s0.8,0.6,1.2,0.5c1.3-0.1,2.4-1,2.6-2.3c0.1-0.5,0-1.1-0.3-1.5C24.6-83.3,24.1-83.5,23.7-83.5L23.7-83.5z M38.7-87.5
								c-1.1-5.9-6.3-10.2-12.3-10c-6.3,0-12.7,4-16.4,10H38.7z"/>
							
								<radialGradient id="Path_72_1_" cx="-356.4982" cy="1410.9886" r="25.187" gradientTransform="matrix(1.011 0.117 5.400000e-02 -0.464 318.466 502.9113)" gradientUnits="userSpaceOnUse">
								<stop  offset="0" style="stop-color:#284F58"/>
								<stop  offset="8.600000e-02" style="stop-color:#1E4651"/>
								<stop  offset="0.297" style="stop-color:#123945"/>
								<stop  offset="0.557" style="stop-color:#0A313E"/>
								<stop  offset="1" style="stop-color:#082F3C"/>
							</radialGradient>
							<path id="Path_72" class="st20" d="M27.5-104.5c5.4-0.1,10.6,2.2,14.1,6.4c3.7,4.5,5,10.5,3.7,16.9
								c-2.5,12.7-14.4,23.1-26.7,23.1C13.2-58,8-60.3,4.5-64.5C0.8-69-0.5-75,0.8-81.4C3.3-94.1,15.3-104.5,27.5-104.5 M10-87.5
								h28.7c-1.1-5.9-6.3-10.2-12.3-10C20.1-97.6,13.7-93.6,10-87.5 M22.6-79.1c1.3-0.1,2.4-1,2.6-2.3c0.1-0.5,0-1.1-0.3-1.5
								s-0.8-0.6-1.2-0.5c-1.3,0.1-2.4,1-2.6,2.3c-0.1,0.5,0,1.1,0.3,1.5C21.6-79.3,22.1-79.1,22.6-79.1 M16.6-65.4
								c0.7-4.7-0.2-9.1-2.7-11.9c-1.6-2-4-3.2-6.6-3.3c-0.7,3.6,0,7.3,2,10.3C11.1-67.8,13.7-66.1,16.6-65.4 M38.6-80.6
								c-6.5,0.5-13.1,7-15.2,15.2C30.9-67.3,36.7-73.2,38.6-80.6 M27.5-107.1c-13.4,0-26.6,11.3-29.3,25.2
								c-1.4,7.3,0.1,14.1,4.3,19.1c4,4.8,10,7.5,16.2,7.3c13.4,0,26.6-11.3,29.3-25.2c1.4-7.3-0.1-14.1-4.3-19.1
								C39.7-104.6,33.7-107.3,27.5-107.1L27.5-107.1z M15.6-90.2c2.9-2.8,6.7-4.5,10.8-4.7c3.5-0.1,6.7,1.7,8.5,4.7H15.6z
								 M14.2-69.3c-1-0.7-1.9-1.5-2.6-2.5c-1.1-1.6-1.7-3.5-1.8-5.5c0.8,0.4,1.5,1,2.1,1.7C13.3-73.8,14.1-71.6,14.2-69.3
								L14.2-69.3z M28.5-70.6c1.4-2.2,3.2-4.1,5.3-5.6C32.4-74,30.6-72.1,28.5-70.6z"/>
						</g>
					</g>
				</g>
			</g>
		</g>
	</g>
</g>
</svg>
