<?xml version="1.0" encoding="utf-8"?>
<!-- Generator: Adobe Illustrator 24.0.0, SVG Export Plug-In . SVG Version: 6.00 Build 0)  -->
<svg version="1.1" id="圖層_1" xmlns="http://www.w3.org/2000/svg" xmlns:xlink="http://www.w3.org/1999/xlink" x="0px" y="0px"
	 viewBox="0 0 374.1 44.3" style="enable-background:new 0 0 374.1 44.3;" xml:space="preserve">
<style type="text/css">
	.st0{fill:#FFFFFF;}
	.st1{fill:url(#Path_2-2_1_);}
	.st2{fill:url(#Path_3-2_1_);}
	.st3{fill:none;}
	.st4{fill:url(#Path_19_1_);}
	.st5{fill:url(#Path_21_1_);}
	.st6{fill:url(#Path_22_1_);}
	.st7{enable-background:new    ;}
	.st8{fill:#92D92A;}
	.st9{fill:none;stroke:#FFFFFF;}
</style>
<g id="logo" transform="translate(0 0)">
	<g id="TF_logo" transform="translate(0 10.809)">
		<g id="Group_8" transform="translate(0 0)">
			<g id="Group_11" transform="translate(0 0)">
				<path id="Path_2" class="st0" d="M9.5,32.1H2c-1.3-0.2-2.1-1.3-2-2.6V2.6C-0.1,1.3,0.7,0.2,2,0h18.6L9.5,32.1z"/>
				<path id="Path_3" class="st0" d="M33.8,29.5c0.1,1.3-0.7,2.4-2,2.6H9.5L20.6,0h11.2c1.3,0.2,2.1,1.3,2,2.6L33.8,29.5z"/>
			</g>
			<g id="Group_6" transform="translate(1.715 1.628)">
				
					<linearGradient id="Path_2-2_1_" gradientUnits="userSpaceOnUse" x1="-105.9233" y1="416.2685" x2="-105.0603" y2="416.0785" gradientTransform="matrix(18.5073 0 0 -28.834 1957.5311 12012.6846)">
					<stop  offset="0" style="stop-color:#000000"/>
					<stop  offset="1" style="stop-color:#231815"/>
				</linearGradient>
				<path id="Path_2-2" class="st1" d="M8.5,28.8H1.8c-1.1-0.2-1.9-1.2-1.8-2.3V2.3C-0.1,1.2,0.7,0.2,1.8,0h16.7L8.5,28.8z"/>
				
					<linearGradient id="Path_3-2_1_" gradientUnits="userSpaceOnUse" x1="-106.4397" y1="416.1695" x2="-105.5717" y2="415.9435" gradientTransform="matrix(21.8973 0 0 -28.834 2344.7681 12012.6748)">
					<stop  offset="0" style="stop-color:#75AE21"/>
					<stop  offset="1" style="stop-color:#75AE21"/>
				</linearGradient>
				<path id="Path_3-2" class="st2" d="M30.4,26.5c0.1,1.1-0.7,2.2-1.8,2.3H8.5L18.5,0h10.1c1.1,0.2,1.9,1.2,1.8,2.3L30.4,26.5z"/>
			</g>
			<g id="Group_7" transform="translate(1.664 7.346)">
				<path id="Path_4" class="st0" d="M30.5,4.2H0L0,0h30.5L30.5,4.2z"/>
				<path id="Path_5" class="st0" d="M15.5,3l-7,20.2l-4.7,0l7.8-21.6L15.5,3z"/>
				<path id="Path_6" class="st0" d="M26,13.9H11.8V9.7h15.7L26,13.9z"/>
			</g>
		</g>
		<g id="Group_10" transform="translate(44.922 5.867)">
			<g id="Group_9">
				<path id="Path_7" class="st0" d="M19.4,0l0.3,5.5H19c-0.1-0.7-0.2-1.4-0.5-2.1c-0.3-0.6-0.8-1.1-1.4-1.5
					c-0.7-0.3-1.5-0.5-2.3-0.5h-3.3v17.9c-0.1,0.9,0.1,1.9,0.5,2.7c0.5,0.5,1.3,0.8,2,0.7h0.8v0.6H4.8v-0.6h0.8
					c0.8,0.1,1.6-0.3,2.1-0.9c0.3-0.8,0.5-1.7,0.4-2.5V1.5H5.3c-0.8,0-1.6,0-2.3,0.2C2.3,2,1.8,2.4,1.4,3C0.9,3.7,0.7,4.6,0.7,5.5H0
					L0.3,0L19.4,0z"/>
				<path id="Path_8" class="st0" d="M39.6,23.4h-5l-6.4-8.8c-0.5,0-0.9,0-1.2,0c-0.1,0-0.3,0-0.4,0c-0.1,0-0.3,0-0.4,0v5.5
					c-0.1,0.8,0,1.5,0.4,2.2c0.4,0.4,1,0.7,1.6,0.6h0.7v0.5h-8.1v-0.5h0.7c0.7,0.1,1.3-0.2,1.7-0.8c0.3-0.7,0.4-1.4,0.3-2.1V7.9
					c0.1-0.8,0-1.5-0.4-2.2c-0.4-0.4-1-0.7-1.6-0.6h-0.7V4.5h6.9c1.5-0.1,3,0.1,4.4,0.4c0.9,0.3,1.8,0.9,2.4,1.6
					c0.7,0.8,1,1.8,1,2.8c0,1.1-0.4,2.2-1.1,3c-1,1-2.2,1.6-3.5,1.8l3.9,5.4c0.6,1,1.4,1.8,2.3,2.5c0.8,0.4,1.6,0.7,2.5,0.8
					L39.6,23.4z M26.1,13.7c0.2,0,0.3,0,0.5,0s0.2,0,0.3,0c1.5,0.1,2.9-0.3,4.1-1.2c0.9-0.7,1.4-1.8,1.4-3c0-1.1-0.4-2.1-1.1-2.9
					c-0.8-0.8-1.8-1.2-2.9-1.1c-0.7,0-1.5,0.1-2.2,0.3V13.7z"/>
				<path id="Path_9" class="st0" d="M45.1,5.6V13h4.2c0.8,0.1,1.5-0.1,2.2-0.5c0.6-0.6,0.8-1.4,0.8-2.3h0.5v6.6h-0.5
					c-0.1-0.6-0.2-1.2-0.4-1.8c-0.2-0.3-0.5-0.6-0.8-0.8c-0.6-0.2-1.2-0.3-1.8-0.3h-4.2v6.2c0,0.5,0,1,0.1,1.5
					c0.1,0.2,0.2,0.3,0.4,0.4c0.3,0.1,0.7,0.2,1.1,0.2h3.2c0.8,0,1.6,0,2.3-0.2c0.5-0.2,1-0.5,1.4-0.9c0.7-0.8,1.3-1.7,1.8-2.6h0.6
					l-1.6,4.7H39.7v-0.5h0.7c0.4,0,0.9-0.1,1.3-0.3c0.3-0.1,0.5-0.4,0.6-0.7c0.1-0.6,0.2-1.2,0.2-1.8V7.8c0.1-0.8,0-1.5-0.4-2.2
					C41.6,5.2,41,5,40.3,5.1h-0.7V4.5h14.6l0.2,4.1h-0.5c-0.1-0.7-0.3-1.4-0.6-2.1c-0.3-0.4-0.6-0.7-1.1-0.9c-0.6-0.2-1.3-0.2-2-0.2
					H45.1z"/>
				<path id="Path_10" class="st0" d="M55.9,4.5h5.1l11.6,14.2V7.8c0.1-0.7,0-1.5-0.4-2.2c-0.4-0.4-1-0.6-1.6-0.6h-0.7V4.5h6.6v0.5
					h-0.7c-0.7-0.1-1.3,0.2-1.7,0.7c-0.3,0.6-0.4,1.3-0.3,2v15.9h-0.5L60.9,8.5v11.6c-0.1,0.7,0,1.5,0.4,2.2c0.4,0.4,1,0.6,1.6,0.6
					h0.7v0.5H57v-0.5h0.7c0.7,0.1,1.3-0.2,1.7-0.7c0.3-0.6,0.4-1.3,0.3-2V7c-0.4-0.5-0.8-0.9-1.2-1.3c-0.4-0.3-0.8-0.4-1.2-0.6
					c-0.4-0.1-0.8-0.1-1.2-0.1L55.9,4.5z"/>
				<path id="Path_11" class="st0" d="M77.2,23.4v-0.5h0.7c0.7,0.1,1.3-0.2,1.7-0.8c0.3-0.7,0.4-1.4,0.3-2.1V7.9
					c0.1-0.8,0-1.5-0.4-2.2c-0.4-0.4-1-0.7-1.6-0.6h-0.7V4.5h7.7c2.2-0.1,4.4,0.2,6.4,1c1.5,0.7,2.7,1.8,3.6,3.2
					c0.9,1.6,1.4,3.4,1.3,5.2c0.1,2.4-0.8,4.8-2.4,6.6c-1.8,2-4.5,3-8.2,3H77.2z M82.6,22.1c1,0.2,2,0.4,3,0.4c2,0.1,4-0.8,5.4-2.3
					c2.8-3.6,2.8-8.7,0-12.3c-1.4-1.5-3.4-2.3-5.5-2.3c-1,0-1.9,0.2-2.9,0.4V22.1z"/>
				<path id="Path_12" class="st0" d="M104.3,1.3v9.2h4.3c0.8,0.1,1.5-0.2,2.2-0.6c0.6-0.7,0.9-1.6,0.9-2.6h0.6v7.9h-0.6
					c0-0.7-0.1-1.4-0.4-2c-0.2-0.4-0.5-0.7-0.9-1c-0.6-0.2-1.2-0.4-1.8-0.3h-4.3v7.4c0,0.8,0,1.6,0.2,2.4c0.1,0.3,0.4,0.6,0.7,0.7
					c0.5,0.3,1,0.4,1.6,0.4h0.8v0.6H97.7v-0.6h0.8c0.8,0.1,1.6-0.2,2.1-0.8c0.4-0.8,0.5-1.8,0.4-2.7V4.1c0-0.8,0-1.6-0.2-2.3
					c-0.1-0.3-0.4-0.6-0.7-0.7c-0.5-0.3-1-0.4-1.6-0.4h-0.8V0h17.4l0.2,5.2h-0.6c-0.2-0.9-0.5-1.7-1-2.4c-0.4-0.5-0.9-0.9-1.5-1.1
					c-0.9-0.3-1.8-0.4-2.7-0.3L104.3,1.3z"/>
				<path id="Path_13" class="st0" d="M126.9,4.1c2.4,0,4.7,1,6.4,2.8c1.8,1.9,2.8,4.4,2.7,7c0.1,2.7-0.9,5.2-2.7,7.2
					c-3.4,3.6-9.2,3.8-12.8,0.4c-0.1-0.1-0.2-0.2-0.3-0.3c-1.8-1.9-2.8-4.5-2.7-7.2c-0.1-2.8,1-5.5,3.1-7.3
					C122.3,5,124.6,4.1,126.9,4.1z M126.7,5.1c-1.6-0.1-3.1,0.6-4.1,1.9c-1.3,1.6-1.9,3.8-1.9,6.9c0,3.1,0.7,5.5,2,7.1
					c1,1.2,2.5,1.9,4,1.9c1.7,0,3.3-0.7,4.4-2.1c1.2-1.4,1.7-3.6,1.7-6.6c0-3.2-0.6-5.6-1.9-7.2C129.9,5.8,128.3,5,126.7,5.1z"/>
				<path id="Path_14" class="st0" d="M156.2,23.4h-5l-6.4-8.8c-0.5,0-0.9,0-1.2,0c-0.1,0-0.3,0-0.4,0s-0.3,0-0.4,0v5.5
					c-0.1,0.8,0,1.5,0.4,2.2c0.4,0.4,1,0.7,1.6,0.6h0.7v0.5h-8.1v-0.5h0.7c0.7,0.1,1.3-0.2,1.7-0.8c0.3-0.7,0.4-1.4,0.3-2.1V7.9
					c0.1-0.8,0-1.5-0.4-2.2c-0.4-0.4-1-0.7-1.6-0.6h-0.7V4.5h6.9c1.5-0.1,3,0.1,4.4,0.4c0.9,0.3,1.8,0.9,2.4,1.6
					c0.7,0.8,1,1.8,1,2.8c0,1.1-0.4,2.2-1.1,3c-1,1-2.2,1.6-3.5,1.8l3.9,5.4c0.6,1,1.4,1.8,2.3,2.5c0.8,0.4,1.6,0.7,2.5,0.8
					L156.2,23.4z M142.8,13.7c0.2,0,0.3,0,0.5,0s0.2,0,0.3,0c1.5,0.1,2.9-0.3,4.1-1.2c0.9-0.7,1.4-1.8,1.4-3c0-1.1-0.4-2.1-1.1-2.9
					c-0.8-0.8-1.8-1.2-2.9-1.1c-0.7,0-1.5,0.1-2.2,0.3V13.7z"/>
				<path id="Path_15" class="st0" d="M172.9,4.1l0.4,6.4h-0.4c-0.4-1.6-1.2-3.1-2.5-4.2c-1.1-0.9-2.5-1.3-3.8-1.3
					c-2.6-0.1-4.9,1.5-5.8,4c-0.6,1.7-0.9,3.4-0.9,5.2c0,1.5,0.2,3,0.8,4.4c0.5,1.2,1.4,2.2,2.5,2.9c1.1,0.7,2.4,1,3.8,1
					c1.1,0,2.3-0.2,3.2-0.8c1.2-0.8,2.3-1.9,3.1-3.1l0.4,0.3c-0.8,1.5-1.9,2.8-3.3,3.7c-1.4,0.8-2.9,1.2-4.5,1.2
					c-2.9,0.1-5.6-1.2-7.3-3.5c-1.3-1.8-2-3.9-1.9-6.1c0-1.8,0.4-3.6,1.3-5.2c0.8-1.5,2-2.8,3.5-3.7c1.5-0.9,3.2-1.3,4.9-1.3
					c1.4,0,2.8,0.4,4,1c0.3,0.2,0.5,0.3,0.8,0.3c0.2,0,0.5-0.1,0.7-0.3c0.3-0.3,0.4-0.7,0.5-1L172.9,4.1z"/>
				<path id="Path_16" class="st0" d="M180.5,5.6V13h4.2c0.8,0.1,1.5-0.1,2.2-0.5c0.6-0.6,0.8-1.4,0.8-2.3h0.5v6.6h-0.5
					c-0.1-0.6-0.2-1.2-0.4-1.8c-0.2-0.3-0.5-0.6-0.8-0.8c-0.6-0.2-1.2-0.3-1.8-0.3h-4.2v6.2c0,0.5,0,1,0.1,1.5
					c0.1,0.2,0.2,0.3,0.4,0.4c0.3,0.1,0.7,0.2,1.1,0.2h3.2c0.8,0,1.6,0,2.3-0.2c0.5-0.2,1-0.5,1.4-0.9c0.7-0.8,1.3-1.7,1.8-2.6h0.6
					l-1.6,4.7h-14.6v-0.5h0.7c0.4,0,0.9-0.1,1.3-0.3c0.3-0.1,0.5-0.4,0.6-0.7c0.1-0.6,0.2-1.2,0.2-1.8V7.8c0.1-0.8,0-1.5-0.4-2.2
					c-0.5-0.4-1.1-0.6-1.7-0.6h-0.7V4.5h14.6l0.2,4.1h-0.5c-0.1-0.7-0.3-1.4-0.6-2.1c-0.3-0.4-0.6-0.7-1.1-0.9
					c-0.6-0.2-1.3-0.2-2-0.2H180.5z"/>
			</g>
		</g>
	</g>
	<g id="Group_13" transform="translate(248.22)">
		<g id="Group_12" transform="translate(82.832 0) rotate(3)">
			<path id="Path_17" class="st3" d="M16.4,5.1c-6.6,0.5-11.6,6.3-11.1,13s6.3,11.6,13,11.1c6.6-0.5,11.6-6.3,11.1-13
				C28.9,9.6,23.1,4.6,16.4,5.1C16.4,5.1,16.4,5.1,16.4,5.1z M12,22c-0.4,0-0.8-0.3-0.9-0.7c0-0.2,0-0.4,0.1-0.5l7.6-11.2
				c0.3-0.4,0.8-0.5,1.1-0.2c0.4,0.3,0.4,0.7,0.2,1.1l-7.6,11.2C12.5,21.9,12.3,22,12,22z M24,13.7l-7.6,11.2
				c-0.3,0.4-0.8,0.5-1.1,0.2c-0.4-0.3-0.5-0.8-0.2-1.1l0,0l7.6-11.2c0.3-0.4,0.8-0.5,1.1-0.2C24.2,12.8,24.3,13.3,24,13.7L24,13.7z
				"/>
			<path id="Path_18" class="st0" d="M43.4,36l-0.2-0.2l-4,4.7l0.1,0.1l1.3,1.1c0.8,0.7,2.4,0.2,3.5-1.1c1.1-1.3,1.4-2.9,0.6-3.6
				L43.4,36L43.4,36z"/>
			
				<linearGradient id="Path_19_1_" gradientUnits="userSpaceOnUse" x1="-395.0939" y1="394.7141" x2="-394.0409" y2="394.7141" gradientTransform="matrix(5.1929 -0.2983 -0.2721 -5.6922 2200.698 2166.5962)">
				<stop  offset="0" style="stop-color:#92D92A"/>
				<stop  offset="1" style="stop-color:#92D92A"/>
			</linearGradient>
			<path id="Path_19" class="st4" d="M42,34.8l-4,4.7l1.2,1l4-4.7L43,35.7l0,0L42,34.8z"/>
			
				<linearGradient id="Path_21_1_" gradientUnits="userSpaceOnUse" x1="-404.1271" y1="433.5038" x2="-403.0341" y2="433.5038" gradientTransform="matrix(9.1721 -0.671 -0.4807 -12.803 3931.3411 5294.6738)">
				<stop  offset="0" style="stop-color:#92D92A"/>
				<stop  offset="1" style="stop-color:#92D92A"/>
			</linearGradient>
			<path id="Path_21" class="st5" d="M18.9,9.6l-7.6,11.2c-0.3,0.4-0.2,0.9,0.2,1.1c0.2,0.1,0.3,0.2,0.5,0.1c0.2,0,0.5-0.2,0.6-0.4
				l7.6-11.2c0.2-0.4,0.1-0.9-0.3-1.1C19.6,9.2,19.1,9.3,18.9,9.6z"/>
			
				<linearGradient id="Path_22_1_" gradientUnits="userSpaceOnUse" x1="-404.1637" y1="433.5303" x2="-403.0717" y2="433.5303" gradientTransform="matrix(9.1784 -0.6715 -0.481 -12.8132 3937.9534 5302.501)">
				<stop  offset="0" style="stop-color:#92D92A"/>
				<stop  offset="1" style="stop-color:#92D92A"/>
			</linearGradient>
			<path id="Path_22" class="st6" d="M22.7,12.9l-7.6,11.2c-0.3,0.4-0.2,0.9,0.2,1.1s0.9,0.2,1.1-0.2l0,0L24,13.8
				c0.2-0.4,0.1-0.9-0.2-1.1C23.4,12.5,22.9,12.6,22.7,12.9z"/>
			<path class="st0" d="M31.8,26.2c4.9-8.2,2.3-18.8-5.9-23.7c-3-1.8-6.6-2.7-10.1-2.4C6.3,0.9-0.7,9.3,0.2,18.8
				c0,0.3,0.1,0.6,0.1,0.8l5-0.3c-0.1-0.4-0.1-0.7-0.2-1.1C4.6,11.6,9.6,5.7,16.3,5.2C23,4.6,28.8,9.6,29.4,16.2c0,0,0,0,0,0.1
				C30,23,25,28.8,18.4,29.4c0,0,0,0,0,0c-2.2,0.2-4.2-0.2-6.1-1.1l0.3,5.5c1.9,0.5,3.9,0.8,5.9,0.7c3.4-0.3,6.6-1.5,9.2-3.6
				L38,39.5l4-4.8L31.8,26.2z"/>
		</g>
		<g class="st7">
			<path class="st8" d="M17.1,25.7h-2.4c-0.2,1.1-0.5,2.4-1,3.9h3.1v8.9h-1.5v-0.8H14V39h-1.5v-6.5c-0.2,0.4-0.4,0.7-0.6,0.9
				l-0.9-1.6c1.1-1.6,1.8-3.6,2.3-6h-2v-1.5h6V25.7z M15.3,36.2v-5H14v5H15.3z M26.7,31.5h-2.1v7.9H23v-7.9h-2.1
				c0.1,3.4-0.7,6-2.5,8l-1.2-1.2c0.7-0.6,1.2-1.4,1.6-2.4c0.4-1,0.5-2.4,0.5-4.4h-1.9v-1.6h1.9v-4.2h-1.4v-1.5h8.6v1.5h-1.8v4.2
				h2.1V31.5z M23,29.9v-4.2h-2.1v4.2H23z"/>
			<path class="st8" d="M46.1,28.6h-1.6v-2h-3.2V29c0,0.3,0.1,0.4,0.4,0.4h3.7v1.5h-4c-1.1,0-1.6-0.5-1.6-1.5v-2.8h-2
				c-0.3,1.6-1,2.8-2.1,3.5s-2.4,1.2-4,1.5l-0.8-1.5c1.6-0.2,2.8-0.6,3.6-1.1c0.9-0.5,1.4-1.3,1.6-2.4h-3.1v2h-1.6v-3.5h6.4
				c-0.2-0.4-0.5-0.7-0.7-0.9l1.6-0.6c0.4,0.4,0.7,1,1,1.6h6.5V28.6z M46.5,35.4c0,1.4-0.1,2.4-0.3,2.8c-0.2,0.4-0.4,0.7-0.7,0.8
				c-0.3,0.1-1,0.2-2.1,0.2c-0.9,0-1.5,0-1.7-0.1c-0.3-0.1-0.5-0.3-0.6-0.5s-0.2-0.7-0.2-1.2l0.2-3.7h-3.1c-0.5,2.7-2.5,4.6-5.9,5.7
				l-1.1-1.4c3.1-1.1,4.9-2.5,5.3-4.4h-4.4v-1.5h4.7c0.1-0.5,0.1-1.3,0.1-2.2h1.7c0,0.7-0.1,1.4-0.1,2.2h4.6l-0.2,5
				c0,0.2,0.1,0.3,0.2,0.4c0.1,0.1,0.4,0.1,0.9,0.1c0.6,0,0.9,0,1-0.1c0.1-0.1,0.2-0.1,0.2-0.2c0.1-0.1,0.1-0.4,0.2-1.1
				c0.1-0.6,0.1-1.2,0.1-1.6L46.5,35.4z"/>
			<path class="st8" d="M58.1,36.2h-2.8v3.1h-1.5v-3.1h-3.1v-1.4h3.1v-1.4H51V32h1.4c-0.1-0.8-0.3-1.6-0.6-2.3h-1.1v-1.5h3v-1.3
				h-2.5v-1.4h2.5v-1.7h1.5v1.7h2.4v1.4h-2.4v1.3H58v1.5h-0.8C57,30.2,56.8,31,56.5,32h1.2v1.4h-2.4v1.4h2.8V36.2z M55.6,29.7h-2.2
				c0.2,0.6,0.3,1.4,0.5,2.3h1C55.2,31.2,55.4,30.5,55.6,29.7z M66.5,38.2l-1,1.3c-1.1-0.8-1.8-1.4-2.3-2c-0.6,0.8-1.2,1.4-1.9,2
				l-1-1.2c0.8-0.6,1.5-1.3,1.9-2c-0.9-1.4-1.5-3.1-1.8-5.3h-0.4v8.4h-1.6V24h7.1c0,0.9,0,1.8-0.1,2.5c-0.1,0.8-0.2,1.2-0.3,1.4
				s-0.3,0.4-0.5,0.5c-0.2,0.1-0.7,0.2-1.6,0.2c-0.3,0-0.5,0-0.9,0l-0.5-1.4c0.3,0,0.9,0,1.8,0c0.1,0,0.2-0.1,0.3-0.2
				c0.1-0.1,0.2-0.6,0.2-1.5h-4v4h5.6c-0.2,2.6-0.8,4.8-1.6,6.6C64.7,36.8,65.5,37.5,66.5,38.2z M64,31h-2c0.2,1.5,0.6,2.7,1.1,3.7
				C63.6,33.7,63.8,32.5,64,31z"/>
			<path class="st8" d="M86,31.3H70.4v-1.5h7v-2.4h-3.9c-0.7,0.8-1.4,1.4-2.1,1.9l-1.2-1.1c1.4-1,2.6-2.5,3.8-4.5l1.6,0.5
				c-0.3,0.6-0.7,1.1-1.1,1.7h2.8v-2.3H79V26h6v1.5h-6v2.4h7V31.3z M84.1,39.4h-1.6v-0.8h-8.6v0.8h-1.7v-6.5h11.9V39.4z M82.5,37.1
				v-2.7h-8.6v2.7H82.5z"/>
		</g>
	</g>
	<line id="Line_1" class="st9" x1="247.8" y1="17.2" x2="247.8" y2="41.2"/>
</g>
</svg>
